<svg width="617" height="897" viewBox="0 0 617 897" fill="none" xmlns="http://www.w3.org/2000/svg">
<path d="M617 686.026H0V686.474H617V686.026Z" fill="#EBEBEB"/>
<path d="M142.317 703.104H111.628V703.553H142.317V703.104Z" fill="#EBEBEB"/>
<path d="M221.91 698.243H187.975V698.691H221.91V698.243Z" fill="#EBEBEB"/>
<path d="M130.533 719.771H58.8248V720.219H130.533V719.771Z" fill="#EBEBEB"/>
<path d="M555.177 716.757H528.522V717.205H555.177V716.757Z" fill="#EBEBEB"/>
<path d="M299.516 701.705H265.051V702.154H299.516V701.705Z" fill="#EBEBEB"/>
<path d="M457.678 709.186H371.027V709.635H457.678V709.186Z" fill="#EBEBEB"/>
<path d="M292.458 606.013H54.1849C52.3183 606.008 50.5293 604.927 49.2105 603.007C47.8918 601.086 47.1511 598.483 47.1511 595.769V108.824C47.1674 106.126 47.9152 103.546 49.2322 101.645C50.5492 99.7436 52.329 98.6746 54.1849 98.67H292.458C294.327 98.67 296.119 99.7493 297.44 101.67C298.762 103.591 299.504 106.197 299.504 108.914V595.769C299.504 598.486 298.762 601.092 297.44 603.013C296.119 604.934 294.327 606.013 292.458 606.013ZM54.1849 99.0288C52.4001 99.0336 50.6896 100.068 49.4287 101.904C48.1678 103.741 47.4596 106.229 47.4596 108.824V595.769C47.4596 598.364 48.1678 600.853 49.4287 602.689C50.6896 604.526 52.4001 605.56 54.1849 605.565H292.458C294.244 605.56 295.956 604.526 297.219 602.69C298.481 600.855 299.192 598.366 299.196 595.769V108.824C299.192 106.228 298.481 103.739 297.219 101.903C295.956 100.067 294.244 99.0336 292.458 99.0288H54.1849Z" fill="#EBEBEB"/>
<path d="M559.385 606.013H321.099C319.231 606.008 317.441 604.928 316.12 603.008C314.8 601.088 314.056 598.485 314.053 595.769V108.824C314.072 106.124 314.823 103.544 316.142 101.644C317.461 99.743 319.242 98.6746 321.099 98.67H559.385C561.238 98.6794 563.015 99.7504 564.329 101.651C565.644 103.552 566.39 106.129 566.406 108.824V595.769C566.406 598.48 565.667 601.08 564.351 603C563.035 604.92 561.249 606.004 559.385 606.013ZM321.099 99.0288C319.313 99.0336 317.601 100.067 316.338 101.903C315.076 103.739 314.365 106.228 314.361 108.824V595.769C314.365 598.366 315.076 600.855 316.338 602.69C317.601 604.526 319.313 605.56 321.099 605.565H559.385C561.17 605.56 562.882 604.526 564.145 602.69C565.408 600.855 566.119 598.366 566.122 595.769V108.824C566.119 106.228 565.408 103.739 564.145 101.903C562.882 100.067 561.17 99.0336 559.385 99.0288H321.099Z" fill="#EBEBEB"/>
<path d="M396.139 115.928H39.3029C33.4418 115.928 28.6905 122.836 28.6905 131.357V450.85C28.6905 459.371 33.4418 466.279 39.3029 466.279H396.139C402 466.279 406.751 459.371 406.751 450.85V131.357C406.751 122.836 402 115.928 396.139 115.928Z" fill="#EBEBEB"/>
<path d="M406.751 133.653H28.6905V416.064H406.751V133.653Z" fill="#FAFAFA"/>
<path d="M285.387 240.647C285.394 237.153 286.351 233.805 288.051 231.334C289.75 228.863 292.054 227.471 294.457 227.461H577.043C579.447 227.471 581.75 228.863 583.449 231.334C585.149 233.805 586.106 237.153 586.113 240.647V283.093H285.387V240.647Z" fill="#E6E6E6"/>
<path d="M358.736 265.261C362.525 265.261 365.597 260.795 365.597 255.286C365.597 249.777 362.525 245.312 358.736 245.312C354.947 245.312 351.875 249.777 351.875 255.286C351.875 260.795 354.947 265.261 358.736 265.261Z" fill="white"/>
<path d="M334.426 265.261C338.216 265.261 341.287 260.795 341.287 255.286C341.287 249.777 338.216 245.312 334.426 245.312C330.637 245.312 327.565 249.777 327.565 255.286C327.565 260.795 330.637 265.261 334.426 265.261Z" fill="white"/>
<path d="M310.129 265.261C313.918 265.261 316.99 260.795 316.99 255.286C316.99 249.777 313.918 245.312 310.129 245.312C306.34 245.312 303.268 249.777 303.268 255.286C303.268 260.795 306.34 265.261 310.129 265.261Z" fill="white"/>
<path d="M577.006 511.649H294.42C292.017 511.639 289.713 510.247 288.014 507.776C286.314 505.305 285.357 501.957 285.35 498.463V283.183H586.076V498.463C586.069 501.957 585.112 505.305 583.412 507.776C581.713 510.247 579.41 511.639 577.006 511.649Z" fill="#F5F5F5"/>
<path d="M245.011 314.076C245.017 310.581 245.975 307.233 247.674 304.762C249.374 302.291 251.677 300.899 254.081 300.89H536.667C539.07 300.899 541.373 302.291 543.073 304.762C544.772 307.233 545.73 310.581 545.737 314.076V356.522H245.011V314.076Z" fill="#F0F0F0"/>
<path d="M318.347 338.689C322.137 338.689 325.208 334.223 325.208 328.715C325.208 323.206 322.137 318.74 318.347 318.74C314.558 318.74 311.486 323.206 311.486 328.715C311.486 334.223 314.558 338.689 318.347 338.689Z" fill="#E6E6E6"/>
<path d="M294.038 338.689C297.827 338.689 300.899 334.223 300.899 328.715C300.899 323.206 297.827 318.74 294.038 318.74C290.248 318.74 287.176 323.206 287.176 328.715C287.176 334.223 290.248 338.689 294.038 338.689Z" fill="#E6E6E6"/>
<path d="M269.74 338.689C273.529 338.689 276.601 334.223 276.601 328.715C276.601 323.206 273.529 318.74 269.74 318.74C265.951 318.74 262.879 323.206 262.879 328.715C262.879 334.223 265.951 338.689 269.74 338.689Z" fill="#E6E6E6"/>
<path d="M536.617 585.077H254.031C251.628 585.068 249.325 583.676 247.625 581.205C245.926 578.734 244.968 575.386 244.961 571.891V356.611H545.687V571.891C545.681 575.386 544.723 578.734 543.023 581.205C541.324 583.676 539.021 585.068 536.617 585.077Z" fill="#FAFAFA"/>
<path d="M204.622 387.504C204.628 384.01 205.586 380.661 207.286 378.191C208.985 375.72 211.288 374.328 213.692 374.318H496.278C498.681 374.328 500.984 375.72 502.684 378.191C504.384 380.661 505.341 384.01 505.348 387.504V429.95H204.622V387.504Z" fill="#FAFAFA"/>
<path d="M277.959 412.118C281.748 412.118 284.82 407.652 284.82 402.143C284.82 396.634 281.748 392.168 277.959 392.168C274.169 392.168 271.097 396.634 271.097 402.143C271.097 407.652 274.169 412.118 277.959 412.118Z" fill="#F0F0F0"/>
<path d="M253.649 412.118C257.438 412.118 260.51 407.652 260.51 402.143C260.51 396.634 257.438 392.168 253.649 392.168C249.859 392.168 246.788 396.634 246.788 402.143C246.788 407.652 249.859 412.118 253.649 412.118Z" fill="#F0F0F0"/>
<path d="M229.351 412.118C233.14 412.118 236.212 407.652 236.212 402.143C236.212 396.634 233.14 392.168 229.351 392.168C225.562 392.168 222.49 396.634 222.49 402.143C222.49 407.652 225.562 412.118 229.351 412.118Z" fill="#F0F0F0"/>
<path d="M496.228 658.506H213.642C211.239 658.496 208.936 657.104 207.236 654.633C205.537 652.162 204.579 648.814 204.573 645.32V430.04H505.298V645.32C505.292 648.814 504.334 652.162 502.635 654.633C500.935 657.104 498.632 658.496 496.228 658.506Z" fill="#E6E6E6"/>
<path d="M308.5 767.043C440.64 767.043 547.76 757.95 547.76 746.735C547.76 735.519 440.64 726.427 308.5 726.427C176.36 726.427 69.2397 735.519 69.2397 746.735C69.2397 757.95 176.36 767.043 308.5 767.043Z" fill="#FF9E00"/>
<path d="M235.891 148.005H224.995V149.799H235.891V148.005Z" fill="#03045E"/>
<path d="M212.051 148.005H185.31V149.799H212.051V148.005Z" fill="#03045E"/>
<path d="M111.467 154.284H505.533C509.46 154.284 513.227 156.552 516.004 160.589C518.781 164.627 520.341 170.102 520.341 175.812V670.454H96.6592V175.812C96.6592 170.102 98.2193 164.627 100.996 160.589C103.773 156.552 107.54 154.284 111.467 154.284Z" fill="#03045E"/>
<path opacity="0.8" d="M520.328 186.576H96.6592V662.094H520.328V186.576Z" fill="white"/>
<path opacity="0.4" d="M520.328 186.576H96.6592V291.112H520.328V186.576Z" fill="#03045E"/>
<path opacity="0.4" d="M511.592 196.569H493.909V222.277H511.592V196.569Z" fill="#03045E"/>
<path opacity="0.4" d="M485.357 196.569H467.674V222.277H485.357V196.569Z" fill="#03045E"/>
<path opacity="0.4" d="M459.122 196.569H441.439V222.277H459.122V196.569Z" fill="#03045E"/>
<path opacity="0.4" d="M176.82 644.943H159.137V647.526H176.82V644.943Z" fill="#03045E"/>
<path opacity="0.4" d="M150.585 644.943H132.902V647.526H150.585V644.943Z" fill="#03045E"/>
<path opacity="0.4" d="M124.35 644.943H106.667V647.526H124.35V644.943Z" fill="#03045E"/>
<path d="M266.161 246.137H260.769L260.016 249.832H255.167L260.942 227.461H266.137L271.912 249.832H266.976L266.161 246.137ZM265.174 241.311L263.484 233.22L261.793 241.275L265.174 241.311Z" fill="#FF9E00"/>
<path d="M273.158 227.461H277.477V235.211C277.881 234.581 278.373 234.086 278.921 233.758C279.493 233.422 280.105 233.251 280.723 233.256C281.357 233.235 281.987 233.415 282.569 233.783C283.151 234.152 283.67 234.701 284.092 235.391C285.05 237.113 285.526 239.298 285.424 241.508C285.448 243.107 285.242 244.696 284.82 246.173C284.473 247.403 283.885 248.457 283.129 249.205C282.418 249.864 281.59 250.207 280.747 250.191C280.032 250.203 279.325 249.963 278.687 249.492C278.086 248.961 277.566 248.259 277.156 247.428V249.832H273.158V227.461ZM277.44 241.688C277.38 242.758 277.572 243.827 277.983 244.72C278.148 245.016 278.357 245.254 278.594 245.416C278.831 245.577 279.091 245.658 279.353 245.652C279.594 245.644 279.83 245.556 280.044 245.394C280.258 245.232 280.444 245.002 280.587 244.72C280.991 243.797 281.173 242.705 281.105 241.616C281.157 240.621 280.979 239.63 280.599 238.799C280.454 238.523 280.268 238.298 280.054 238.143C279.84 237.987 279.604 237.905 279.365 237.902C279.095 237.888 278.827 237.965 278.581 238.127C278.334 238.289 278.117 238.531 277.946 238.835C277.551 239.669 277.372 240.68 277.44 241.688Z" fill="#FF9E00"/>
<path d="M286.942 241.777C286.92 240.639 287.062 239.506 287.36 238.452C287.657 237.399 288.103 236.447 288.67 235.66C289.296 234.828 290.03 234.184 290.828 233.765C291.627 233.346 292.474 233.161 293.322 233.22C294.255 233.125 295.19 233.329 296.063 233.819C296.935 234.309 297.722 235.072 298.369 236.055C299.316 237.723 299.807 239.84 299.748 242.001C299.689 244.162 299.084 246.216 298.048 247.769C297.407 248.6 296.66 249.239 295.849 249.648C295.038 250.058 294.179 250.23 293.322 250.155C291.76 250.257 290.222 249.559 288.978 248.182C288.323 247.413 287.799 246.436 287.446 245.325C287.093 244.215 286.92 243.001 286.942 241.777ZM291.224 241.777C291.166 242.917 291.379 244.051 291.829 244.989C292.016 245.307 292.249 245.562 292.511 245.738C292.773 245.913 293.058 246.004 293.346 246.004C293.635 246.004 293.92 245.913 294.182 245.738C294.444 245.562 294.677 245.307 294.864 244.989C295.316 244.026 295.525 242.866 295.457 241.706C295.53 240.613 295.342 239.518 294.926 238.602C294.748 238.281 294.522 238.022 294.266 237.845C294.01 237.668 293.729 237.577 293.445 237.579C293.15 237.568 292.858 237.656 292.59 237.837C292.322 238.017 292.087 238.285 291.903 238.62C291.43 239.519 291.19 240.63 291.224 241.759V241.777Z" fill="#FF9E00"/>
<path d="M313.547 249.832H309.561V247.213C309.078 248.154 308.464 248.936 307.76 249.51C307.065 249.999 306.298 250.233 305.526 250.191C305.017 250.233 304.509 250.119 304.032 249.857C303.556 249.594 303.123 249.188 302.762 248.666C302.025 247.338 301.667 245.649 301.762 243.948V233.633H306.032V242.603C305.98 243.369 306.116 244.137 306.415 244.773C306.553 244.993 306.724 245.164 306.914 245.276C307.104 245.388 307.308 245.437 307.513 245.419C307.75 245.423 307.985 245.348 308.199 245.199C308.413 245.049 308.601 244.83 308.747 244.558C309.144 243.645 309.318 242.565 309.24 241.49V233.704H313.51L313.547 249.832Z" fill="#FF9E00"/>
<path d="M321.297 227.461V233.633H323.641V238.171H321.297V243.984C321.266 244.454 321.313 244.927 321.432 245.365C321.51 245.539 321.619 245.678 321.747 245.767C321.876 245.856 322.019 245.891 322.16 245.868C322.612 245.833 323.057 245.7 323.481 245.473L323.802 249.761C322.83 250.084 321.837 250.252 320.84 250.263C320.037 250.337 319.234 250.134 318.495 249.671C317.989 249.281 317.592 248.646 317.372 247.877C317.083 246.612 316.961 245.279 317.015 243.948V238.243H315.435V233.704H317.015V230.726L321.297 227.461Z" fill="#FF9E00"/>
<path d="M343.138 227.461H347.877V240.791C347.884 242.066 347.742 243.334 347.457 244.54C347.178 245.696 346.723 246.745 346.125 247.608C345.585 248.393 344.937 249.004 344.224 249.402C343.151 249.923 342.024 250.172 340.892 250.137C340.067 250.135 339.243 250.057 338.424 249.904C337.657 249.804 336.908 249.5 336.216 249.007C335.585 248.526 335.027 247.868 334.574 247.07C334.116 246.328 333.772 245.454 333.563 244.504C333.293 243.28 333.148 242.004 333.131 240.719V227.39H337.869V241.042C337.849 241.56 337.9 242.079 338.018 242.569C338.137 243.058 338.321 243.509 338.56 243.894C338.819 244.247 339.124 244.519 339.457 244.695C339.79 244.87 340.144 244.946 340.498 244.917C340.849 244.951 341.201 244.88 341.532 244.707C341.864 244.534 342.167 244.264 342.423 243.912C342.667 243.528 342.856 243.075 342.977 242.582C343.097 242.088 343.148 241.565 343.126 241.042L343.138 227.461Z" fill="#FF9E00"/>
<path d="M349.987 245.33L354.232 244.755C354.352 245.377 354.608 245.924 354.96 246.316C355.329 246.654 355.759 246.823 356.194 246.801C356.667 246.847 357.138 246.657 357.527 246.262C357.64 246.155 357.733 246.009 357.798 245.837C357.862 245.665 357.896 245.472 357.897 245.276C357.895 245.053 357.848 244.836 357.763 244.651C357.677 244.467 357.557 244.322 357.416 244.235C356.82 243.928 356.204 243.711 355.577 243.589C354.53 243.369 353.498 243.021 352.492 242.549C351.911 242.222 351.406 241.662 351.036 240.934C350.635 240.187 350.422 239.263 350.431 238.315C350.421 237.32 350.647 236.35 351.073 235.57C351.536 234.747 352.147 234.127 352.838 233.776C353.813 233.35 354.83 233.157 355.849 233.202C356.841 233.151 357.834 233.302 358.798 233.651C359.394 233.918 359.936 234.392 360.377 235.032C360.847 235.753 361.208 236.609 361.439 237.544L357.379 238.118C357.306 237.657 357.122 237.25 356.86 236.969C356.492 236.63 356.062 236.461 355.626 236.485C355.258 236.442 354.89 236.574 354.578 236.862C354.476 236.965 354.393 237.101 354.335 237.261C354.277 237.42 354.246 237.597 354.244 237.777C354.245 237.97 354.285 238.159 354.36 238.319C354.434 238.479 354.54 238.602 354.664 238.674C355.254 238.97 355.868 239.151 356.49 239.212C357.573 239.331 358.64 239.663 359.662 240.199C360.302 240.557 360.855 241.181 361.253 241.993C361.609 242.741 361.799 243.63 361.796 244.54C361.787 245.511 361.586 246.458 361.216 247.267C360.763 248.224 360.122 248.961 359.378 249.384C358.284 249.964 357.123 250.226 355.96 250.155C354.46 250.331 352.956 249.896 351.616 248.9C350.775 248.062 350.19 246.782 349.987 245.33Z" fill="#FF9E00"/>
<path d="M184.088 493.565C218.164 493.565 245.788 453.405 245.788 403.865C245.788 354.325 218.164 314.165 184.088 314.165C150.012 314.165 122.388 354.325 122.388 403.865C122.388 453.405 150.012 493.565 184.088 493.565Z" fill="#03045E"/>
<path d="M225.422 463.952C248.25 430.765 248.25 376.957 225.422 343.77C202.594 310.583 165.583 310.583 142.755 343.77C119.927 376.957 119.927 430.765 142.755 463.952C165.582 497.14 202.594 497.14 225.422 463.952Z" fill="white"/>
<mask id="mask0_1_959" style="mask-type:luminance" maskUnits="userSpaceOnUse" x="125" y="318" width="118" height="171">
<path d="M225.422 463.952C248.25 430.765 248.25 376.957 225.422 343.77C202.594 310.582 165.583 310.583 142.755 343.77C119.927 376.957 119.927 430.765 142.755 463.952C165.582 497.14 202.594 497.14 225.422 463.952Z" fill="white"/>
</mask>
<g mask="url(#mask0_1_959)">
<path d="M187.074 421.59L192.01 406.664C192.01 406.664 217.776 418.504 221.626 421.249C221.528 411.884 224.81 394.339 225.168 384.723C226.143 383.378 228.5 379.987 229.721 380.113C233.423 392.671 232.621 435.727 225.341 436.498C213.704 437.575 187.074 421.59 187.074 421.59Z" fill="#FFB573"/>
<path d="M183.866 419.258C186.84 429.394 211.261 438.418 211.261 438.418L216.197 416.603C216.197 416.603 206.892 406.341 197.23 403.022C187.346 399.596 180.584 408.135 183.866 419.258Z" fill="#03045E"/>
<path opacity="0.2" d="M184.298 420.442C187.198 426.811 197.983 432.587 205.004 435.798C200.328 422.595 194.022 415.311 184.298 420.442Z" fill="black"/>
<path d="M225.143 386.625L221.207 379.287L228.487 373.385C229.921 376.535 230.657 380.248 230.598 384.024L225.143 386.625Z" fill="#FFB573"/>
<path d="M220.133 369.133L227.229 367.465L228.487 373.385L221.207 379.287L220.133 369.133Z" fill="#FFB573"/>
<path d="M197.823 403.758C197.823 403.758 207.769 438.561 199.97 503.414H161.099C160.642 493.942 163.962 447.8 156.928 403.166C161.601 401.842 166.329 400.967 171.082 400.546C177.086 400.044 183.106 400.044 189.111 400.546C195.404 401.39 197.823 403.758 197.823 403.758Z" fill="#03045E"/>
<path opacity="0.2" d="M166.319 414.163C167.158 421.518 165.862 439.082 161.383 459.372C161.16 441.985 159.889 424.66 157.582 407.597C160.42 407.094 165.529 407.238 166.319 414.163Z" fill="black"/>
<path d="M173.019 376.04C174.253 384.472 175.043 394.931 171.082 400.546C171.082 400.546 173.55 409.104 184.335 409.104C194.207 409.104 189.111 400.546 189.111 400.546C182.607 398.304 182.743 386.679 183.767 380.113L173.019 376.04Z" fill="#FFB573"/>
<path d="M184.841 408.422L187.185 412.189C187.265 412.319 187.32 412.476 187.346 412.646C187.372 412.815 187.367 412.992 187.334 413.158L186.581 416.477C186.539 416.659 186.459 416.818 186.354 416.934C186.248 417.049 186.121 417.115 185.988 417.123L183.52 417.302C183.401 417.313 183.282 417.277 183.176 417.198C183.07 417.12 182.98 417.001 182.916 416.854L181.398 413.643C181.309 413.469 181.261 413.258 181.261 413.042C181.261 412.825 181.309 412.614 181.398 412.441L183.866 408.422C183.996 408.235 184.171 408.13 184.353 408.13C184.536 408.13 184.711 408.235 184.841 408.422Z" fill="white"/>
<path d="M184.335 407.597C183.138 410.51 182.475 413.821 182.41 417.213C182.41 417.213 168.836 410.288 169.243 400.134C169.243 400.134 171.131 398.483 172.328 397.138C172.328 397.138 172.896 403.542 184.335 407.597Z" fill="#263238"/>
<path d="M184.335 407.597C185.616 410.326 186.556 413.363 187.111 416.567C187.111 416.567 193.133 410.539 191.122 400.51C189.991 399.852 188.828 399.318 187.642 398.914C187.642 398.914 188.555 405.444 184.335 407.597Z" fill="#263238"/>
<path d="M185.433 416.603C185.433 416.603 189.296 457.865 189.382 465.041C189.329 471.833 188.594 478.579 187.198 485.062C187.198 485.062 184.545 477.76 184.088 464.736C183.632 451.711 184.187 423.904 183.989 416.585L185.433 416.603Z" fill="white"/>
<path opacity="0.2" d="M183.767 380.131C182.973 384.695 183.067 389.49 184.039 393.98C183.034 393.755 182.058 393.32 181.139 392.689C177.437 390.177 175.574 386.248 173.611 380.418C173.439 378.911 173.241 377.458 173.031 376.04L183.767 380.131Z" fill="black"/>
<path d="M193.997 374.21C193.558 375.469 192.95 376.586 192.208 377.495C191.466 378.404 190.605 379.087 189.678 379.503C187.21 380.561 185.865 377.278 186.482 373.78C187.05 370.622 188.95 366.281 191.541 366.729C192.098 366.852 192.625 367.17 193.077 367.657C193.529 368.144 193.892 368.785 194.134 369.523C194.377 370.261 194.491 371.074 194.467 371.892C194.443 372.709 194.282 373.505 193.997 374.21Z" fill="#FFB573"/>
<path opacity="0.2" d="M190.587 372.645C190.148 373.903 189.54 375.02 188.798 375.929C188.056 376.839 187.195 377.521 186.268 377.937C183.8 378.996 182.455 375.713 183.072 372.214C183.64 369.057 185.54 364.715 188.131 365.164C188.688 365.286 189.215 365.605 189.667 366.092C190.119 366.578 190.482 367.219 190.724 367.957C190.967 368.695 191.081 369.509 191.057 370.326C191.033 371.143 190.872 371.939 190.587 372.645Z" fill="black"/>
<path d="M186.84 366.909C189.308 370.192 193.812 352.18 188.765 347.175C183.718 342.17 181.953 348.969 182.04 353.113C182.126 357.257 183.113 362.047 186.84 366.909Z" fill="#263238"/>
<path d="M169.984 363.877C171.143 375.287 171.427 382.05 175.709 387.558C182.138 395.828 191.43 389.621 192.603 377.996C193.664 367.519 191.591 350.601 183.706 346.78C181.979 345.927 180.129 345.742 178.338 346.244C176.548 346.746 174.878 347.918 173.493 349.643C172.108 351.368 171.056 353.588 170.441 356.084C169.826 358.58 169.668 361.266 169.984 363.877Z" fill="#FFB573"/>
<path d="M169.49 373.565C170.847 374.838 172.711 378.283 175.512 372.183C175.512 370.605 172.76 367.949 172.55 364.218C172.303 359.876 171.649 355.248 169.231 353.723C163.715 350.135 162.703 357.024 163.246 361.15C163.789 365.276 165.282 369.564 169.49 373.565Z" fill="#263238"/>
<path d="M168.75 357.742C181.768 354.799 189.456 354.154 193.368 347.067C197.28 339.981 191.27 331.208 184.73 330.204C184.261 333.899 177.634 343.623 167.454 347.839C166.887 348.065 166.377 348.524 165.985 349.161C165.593 349.798 165.336 350.585 165.243 351.429C165.151 352.273 165.227 353.138 165.464 353.92C165.701 354.702 166.087 355.369 166.578 355.84C167.824 357.006 168.75 357.742 168.75 357.742Z" fill="#263238"/>
<path d="M167.232 376.866C168.418 379.208 170.191 380.774 172.168 381.225C174.747 381.799 175.672 378.301 174.636 374.964C173.71 371.95 171.255 368.039 168.811 368.99C166.368 369.941 165.788 373.977 167.232 376.866Z" fill="#FFB573"/>
<path d="M181.966 365.976C181.966 366.909 182.41 367.644 182.817 367.591C183.224 367.537 183.52 366.765 183.471 365.797C183.422 364.828 183.039 364.146 182.62 364.182C182.2 364.218 181.916 364.971 181.966 365.976Z" fill="#263238"/>
<path d="M189.123 365.205C189.185 366.137 189.567 366.855 189.974 366.819C190.382 366.783 190.678 365.994 190.628 365.025C190.579 364.056 190.184 363.357 189.777 363.411C189.37 363.464 189.073 364.272 189.123 365.205Z" fill="#263238"/>
<path d="M186.877 365.976C187.803 368.758 188.982 371.347 190.382 373.672C189.975 374.17 189.497 374.53 188.982 374.725C188.468 374.921 187.93 374.947 187.408 374.802L186.877 365.976Z" fill="black"/>
<path d="M185.717 377.476C185.741 377.473 185.764 377.464 185.785 377.448C185.807 377.432 185.825 377.41 185.841 377.383C185.856 377.356 185.867 377.325 185.873 377.291C185.879 377.258 185.881 377.223 185.877 377.189C185.876 377.153 185.869 377.119 185.859 377.087C185.848 377.055 185.833 377.027 185.815 377.003C185.796 376.98 185.775 376.962 185.752 376.951C185.729 376.939 185.704 376.935 185.68 376.937C184.886 377.035 184.087 376.86 183.347 376.427C182.608 375.994 181.949 375.314 181.423 374.444C181.408 374.415 181.39 374.392 181.369 374.374C181.348 374.356 181.325 374.344 181.301 374.339C181.277 374.334 181.252 374.336 181.229 374.344C181.205 374.353 181.183 374.369 181.164 374.39C181.144 374.411 181.128 374.438 181.115 374.468C181.103 374.498 181.095 374.532 181.091 374.567C181.088 374.602 181.089 374.638 181.095 374.672C181.101 374.706 181.112 374.738 181.127 374.767C181.686 375.72 182.396 376.464 183.195 376.935C183.993 377.406 184.859 377.592 185.717 377.476Z" fill="#263238"/>
<path d="M179.609 362.711C179.666 362.709 179.721 362.687 179.771 362.646C179.82 362.605 179.862 362.548 179.893 362.478C180.128 361.891 180.457 361.395 180.852 361.032C181.248 360.67 181.697 360.452 182.163 360.397C182.212 360.399 182.261 360.387 182.307 360.361C182.352 360.335 182.394 360.295 182.429 360.245C182.463 360.194 182.491 360.134 182.509 360.067C182.527 360.001 182.535 359.93 182.533 359.858C182.533 359.711 182.493 359.57 182.421 359.465C182.35 359.361 182.252 359.302 182.151 359.302C181.561 359.352 180.99 359.612 180.486 360.06C179.982 360.507 179.562 361.128 179.263 361.868C179.236 361.929 179.218 361.997 179.21 362.068C179.202 362.139 179.203 362.212 179.215 362.283C179.226 362.353 179.248 362.419 179.277 362.477C179.307 362.535 179.344 362.584 179.387 362.621C179.418 362.657 179.453 362.683 179.491 362.699C179.53 362.714 179.569 362.718 179.609 362.711Z" fill="#263238"/>
<path d="M192.121 361.15L192.27 361.06C192.312 361.021 192.349 360.969 192.377 360.908C192.405 360.847 192.424 360.778 192.434 360.706C192.443 360.634 192.442 360.559 192.431 360.488C192.419 360.416 192.398 360.348 192.368 360.289C192.049 359.554 191.614 358.939 191.099 358.496C190.584 358.053 190.004 357.795 189.407 357.742C189.357 357.742 189.308 357.756 189.262 357.784C189.216 357.812 189.175 357.854 189.14 357.905C189.106 357.957 189.079 358.019 189.061 358.086C189.043 358.154 189.035 358.226 189.036 358.298C189.04 358.442 189.081 358.579 189.153 358.679C189.224 358.78 189.32 358.836 189.419 358.836C189.892 358.887 190.351 359.101 190.756 359.459C191.161 359.818 191.503 360.311 191.751 360.899C191.793 360.983 191.849 361.051 191.914 361.094C191.979 361.138 192.05 361.158 192.121 361.15Z" fill="#263238"/>
<path d="M152.461 418.468L162.456 427.008C162.456 427.008 149.845 462.888 151.214 468.485C153.078 476.02 155.904 492.579 159.211 500.777C158.89 502.571 157.039 506.931 155.953 507.738C148.006 499.988 139.306 474.603 139.331 467.355C139.442 450.904 152.461 418.468 152.461 418.468Z" fill="#B55B52"/>
<path d="M156.928 403.166C149.45 404.744 141.49 442.634 141.49 442.634L159.186 450.832C162.34 442.23 165.074 433.316 167.367 424.155C170.65 410.162 164.949 401.461 156.928 403.166Z" fill="#03045E"/>
</g>
<path d="M432.912 644.835C466.988 644.835 494.612 604.675 494.612 555.135C494.612 505.595 466.988 465.435 432.912 465.435C398.836 465.435 371.212 505.595 371.212 555.135C371.212 604.675 398.836 644.835 432.912 644.835Z" fill="#03045E"/>
<path d="M432.912 640.117C465.195 640.117 491.366 602.07 491.366 555.135C491.366 508.201 465.195 470.154 432.912 470.154C400.628 470.154 374.457 508.201 374.457 555.135C374.457 602.07 400.628 640.117 432.912 640.117Z" fill="white"/>
<mask id="mask1_1_959" style="mask-type:luminance" maskUnits="userSpaceOnUse" x="374" y="470" width="118" height="171">
<path d="M432.912 640.117C465.195 640.117 491.366 602.07 491.366 555.135C491.366 508.201 465.195 470.154 432.912 470.154C400.628 470.154 374.457 508.201 374.457 555.135C374.457 602.07 400.628 640.117 432.912 640.117Z" fill="white"/>
</mask>
<g mask="url(#mask1_1_959)">
<path d="M430.222 490.551C421.448 489.403 415.981 509.03 417.808 538.989C428.914 548.157 441.636 538.989 451.817 546.363C461.232 525.427 458.727 478.209 430.222 490.551Z" fill="#263238"/>
<path d="M416.524 577.273C415.264 584.08 413.488 590.662 411.23 596.9C410.015 600.313 408.497 603.48 406.714 606.318C406.192 607.134 405.626 607.89 405.023 608.579C404.078 609.765 402.946 610.596 401.729 611.001C400.791 611.279 399.82 611.218 398.903 610.821C398.087 610.46 397.333 609.848 396.694 609.027C395.889 607.973 395.235 606.699 394.769 605.278C394.159 603.371 393.708 601.366 393.424 599.304C393.158 597.527 392.96 595.73 392.832 593.922C392.56 590.334 392.437 586.997 392.4 583.588C392.332 576.848 392.542 570.109 393.029 563.406L397.57 563.531C397.965 569.99 398.422 576.52 399.002 582.871C399.31 586.046 399.656 589.203 400.1 592.217C400.322 593.706 400.581 595.177 400.853 596.523C401.075 597.687 401.394 598.808 401.803 599.86C401.938 600.183 402.111 600.362 401.901 600.021C401.689 599.755 401.441 599.553 401.173 599.429C400.802 599.262 400.409 599.226 400.026 599.322C399.47 599.465 399.433 599.698 399.656 599.322C399.915 598.937 400.159 598.53 400.384 598.102C401.509 595.866 402.465 593.46 403.234 590.926C404.134 588.16 404.933 585.328 405.628 582.44C406.369 579.552 407.06 576.448 407.664 573.649L416.524 577.273Z" fill="#FFB573"/>
<path d="M410.428 559.997C406.726 561.378 404.135 583.516 404.135 583.516L418.289 597.51C418.289 597.51 424.113 571.263 421.263 565.343C418.412 559.423 415.858 557.934 410.428 559.997Z" fill="#263238"/>
<path opacity="0.2" d="M410.762 564.949L407.911 587.266L413.649 592.917L410.762 564.949Z" fill="black"/>
<path d="M397.768 565.379L399.643 551.619L392.116 554.795C392.116 554.795 391.375 564.321 394.411 567.46L397.768 565.379Z" fill="#FFB573"/>
<path d="M398.891 545.573L392.671 549.323L392.116 554.794L399.643 551.619L398.891 545.573Z" fill="#FFB573"/>
<path d="M410.428 559.997C410.428 559.997 406.146 562.204 414.723 638.807H451.187C450.583 617.279 450.558 603.914 457.654 559.62C452.547 558.094 447.371 557.105 442.167 556.66C436.654 556.086 431.12 556.086 425.607 556.66C418.499 557.611 410.428 559.997 410.428 559.997Z" fill="#263238"/>
<path opacity="0.2" d="M454.655 577.166C451.348 578.35 448.288 583.606 448.658 593.312C448.864 597.703 449.921 601.92 451.706 605.475C452.286 598.048 453.261 589.419 454.815 578.404L454.655 577.166Z" fill="black"/>
<path d="M427.532 573.649C427.532 573.649 433.504 580.825 433.504 588.414C438.44 583.122 445.166 568.68 445.844 559.513C445.868 559.141 445.839 558.766 445.761 558.411C445.682 558.056 445.555 557.728 445.386 557.446C445.218 557.165 445.012 556.935 444.781 556.773C444.55 556.61 444.299 556.517 444.043 556.499C443.595 556.455 443.15 556.371 442.71 556.248C442.524 556.19 442.332 556.196 442.147 556.264C441.963 556.333 441.793 556.462 441.649 556.642L427.532 573.649Z" fill="#FAFAFA"/>
<path d="M427.532 573.649C425.904 575.401 424.536 577.611 423.508 580.148C422.479 582.684 421.813 585.495 421.547 588.414C416.512 583.032 418.597 566.473 421.399 558.652C421.619 558.041 421.939 557.519 422.33 557.131C422.722 556.743 423.173 556.501 423.645 556.427C424.373 556.301 424.94 556.158 425.31 556.05C425.377 556.03 425.446 556.029 425.513 556.049C425.58 556.069 425.643 556.109 425.699 556.167C425.754 556.224 425.801 556.297 425.836 556.382C425.871 556.467 425.894 556.562 425.903 556.66L427.532 573.649Z" fill="#FAFAFA"/>
<path d="M440.538 529.553C439.501 537.303 438.453 551.494 442.179 556.66C438.138 563.7 433.16 569.478 427.544 573.649C420.14 565.056 425.619 556.66 425.619 556.66C431.567 554.597 431.406 548.193 430.37 542.165L440.538 529.553Z" fill="#FFB573"/>
<path opacity="0.2" d="M436.379 534.702L430.37 542.165C430.621 543.565 430.79 544.993 430.876 546.434C433.146 545.968 436.713 543.151 437.206 539.563C437.214 537.868 436.929 536.197 436.379 534.702Z" fill="black"/>
<path d="M449.46 517.103C446.992 529.553 446.14 534.899 440.76 539.976C432.677 547.583 422.694 540.46 422.546 527.185C422.411 515.237 426.47 496.884 435.738 494.606C437.779 494.09 439.878 494.341 441.834 495.336C443.79 496.332 445.539 498.037 446.914 500.291C448.289 502.546 449.244 505.273 449.69 508.216C450.136 511.158 450.056 514.217 449.46 517.103Z" fill="#FFB573"/>
<path d="M442.883 505.495C444.388 517.928 444.968 522.736 447.991 525.947C451.015 529.158 453.828 514.412 451.595 508.742C449.361 503.073 442.883 505.495 442.883 505.495Z" fill="#263238"/>
<path d="M428.667 493.834C426.853 496.956 430.58 503.486 434.195 505.621C433.973 504.936 433.811 504.212 433.714 503.468C436.325 506.063 439.259 507.891 442.352 508.85C442.003 508.208 441.77 507.45 441.673 506.644C441.673 506.034 450.583 514.609 451.878 508.438C453.174 502.266 448.756 494.193 442.006 491.61C436.256 489.511 430.9 489.977 428.667 493.834Z" fill="#263238"/>
<path d="M435.096 515.99C434.948 517.013 434.442 517.784 433.973 517.569C433.504 517.354 433.27 516.475 433.43 515.434C433.591 514.394 434.084 513.64 434.553 513.855C435.022 514.071 435.256 514.878 435.096 515.99Z" fill="#263238"/>
<path d="M427.112 513.407C426.952 514.429 426.446 515.201 425.989 514.986C425.533 514.77 425.273 513.891 425.434 512.851C425.594 511.81 426.088 511.057 426.557 511.272C427.026 511.487 427.26 512.366 427.112 513.407Z" fill="#263238"/>
<path d="M426.754 511.398L425.162 510.124C425.162 510.124 425.73 512.331 426.754 511.398Z" fill="#263238"/>
<path d="M429.284 516.044C428.298 518.182 427.114 520.114 425.767 521.785C426.075 522.288 426.456 522.685 426.883 522.946C427.31 523.207 427.772 523.325 428.235 523.292L429.284 516.044Z" fill="#ED893E"/>
<path d="M431.419 528.566C431.062 528.526 430.708 528.454 430.357 528.351C430.303 528.33 430.256 528.279 430.226 528.209C430.196 528.139 430.186 528.055 430.197 527.974C430.203 527.934 430.214 527.895 430.231 527.861C430.247 527.827 430.268 527.798 430.292 527.776C430.316 527.755 430.343 527.74 430.372 527.734C430.4 527.728 430.429 527.73 430.456 527.741C431.331 528.051 432.243 528.058 433.119 527.762C433.996 527.466 434.812 526.875 435.503 526.037C435.545 525.979 435.6 525.946 435.658 525.946C435.715 525.946 435.77 525.979 435.812 526.037C435.848 526.096 435.868 526.173 435.868 526.252C435.868 526.331 435.848 526.408 435.812 526.467C435.211 527.221 434.514 527.795 433.76 528.156C433.006 528.516 432.21 528.655 431.419 528.566Z" fill="#263238"/>
<path d="M450.027 529.535C449.06 531.601 447.569 533.027 445.881 533.5C443.635 534.11 442.71 531.114 443.512 528.118C444.228 525.481 446.251 522 448.448 522.736C448.926 522.906 449.367 523.249 449.729 523.733C450.092 524.217 450.365 524.827 450.522 525.505C450.68 526.183 450.717 526.908 450.63 527.612C450.544 528.317 450.337 528.978 450.027 529.535Z" fill="#FFB573"/>
<path d="M439.02 513.73C438.931 513.715 438.847 513.658 438.782 513.567C438.718 513.476 438.675 513.357 438.662 513.227C438.45 512.265 438.104 511.377 437.646 510.617C437.187 509.858 436.626 509.244 435.997 508.814C435.938 508.788 435.883 508.744 435.837 508.685C435.791 508.625 435.754 508.553 435.729 508.471C435.703 508.389 435.691 508.3 435.691 508.211C435.691 508.121 435.705 508.032 435.73 507.951C435.756 507.87 435.794 507.797 435.84 507.739C435.887 507.68 435.942 507.636 436.001 507.611C436.06 507.586 436.122 507.579 436.183 507.592C436.244 507.604 436.303 507.636 436.355 507.684C437.112 508.203 437.783 508.952 438.324 509.88C438.864 510.809 439.262 511.895 439.489 513.066C439.508 513.225 439.483 513.388 439.421 513.522C439.359 513.655 439.264 513.749 439.156 513.784L439.02 513.73Z" fill="#263238"/>
<path d="M425.533 505.172C425.457 505.176 425.383 505.151 425.316 505.101C425.249 505.051 425.192 504.976 425.15 504.885C425.089 504.747 425.068 504.579 425.091 504.418C425.114 504.257 425.179 504.116 425.273 504.024C425.829 503.467 426.469 503.111 427.139 502.986C427.808 502.861 428.489 502.971 429.124 503.307C429.176 503.338 429.224 503.384 429.264 503.443C429.305 503.502 429.336 503.573 429.357 503.65C429.378 503.727 429.387 503.81 429.385 503.893C429.383 503.975 429.37 504.057 429.346 504.132C429.323 504.205 429.291 504.271 429.25 504.326C429.21 504.381 429.163 504.423 429.111 504.452C429.06 504.48 429.005 504.493 428.95 504.491C428.895 504.488 428.841 504.47 428.79 504.437C428.284 504.189 427.744 504.117 427.215 504.226C426.686 504.335 426.182 504.622 425.742 505.065C425.68 505.127 425.608 505.164 425.533 505.172Z" fill="#263238"/>
<path d="M434.738 513.981L433.159 512.707C433.159 512.707 433.726 514.878 434.738 513.981Z" fill="#263238"/>
<path d="M451.743 635.704L452.668 640.44C452.804 640.817 452.495 641.194 452.076 641.194H414.538C414.204 641.194 413.933 640.942 413.921 640.655L413.587 635.901C413.587 635.578 413.847 635.291 414.204 635.291H451.15C451.265 635.278 451.381 635.309 451.485 635.382C451.589 635.454 451.678 635.565 451.743 635.704Z" fill="#03045E"/>
<path opacity="0.2" d="M451.743 635.704L452.668 640.44C452.804 640.817 452.495 641.194 452.076 641.194H414.538C414.204 641.194 413.933 640.942 413.921 640.655L413.587 635.901C413.587 635.578 413.847 635.291 414.204 635.291H451.15C451.265 635.278 451.381 635.309 451.485 635.382C451.589 635.454 451.678 635.565 451.743 635.704Z" fill="black"/>
<path d="M446.708 641.696H447.695C447.893 641.696 448.041 641.552 448.028 641.373L447.559 635.202C447.559 635.022 447.374 634.879 447.177 634.879H446.19C445.992 634.879 445.844 635.022 445.857 635.202L446.325 641.373C446.288 641.552 446.461 641.696 446.708 641.696Z" fill="#03045E"/>
<path opacity="0.4" d="M446.708 641.696H447.695C447.893 641.696 448.041 641.552 448.028 641.373L447.559 635.202C447.559 635.022 447.374 634.879 447.177 634.879H446.19C445.992 634.879 445.844 635.022 445.857 635.202L446.325 641.373C446.288 641.552 446.461 641.696 446.708 641.696Z" fill="black"/>
<path d="M417.314 641.696H418.301C418.499 641.696 418.659 641.552 418.647 641.373L418.178 635.202C418.178 635.022 417.993 634.879 417.795 634.879H416.808C416.611 634.879 416.463 635.022 416.475 635.202L416.932 641.373C416.944 641.552 417.092 641.696 417.314 641.696Z" fill="#03045E"/>
<path opacity="0.4" d="M417.314 641.696H418.301C418.499 641.696 418.659 641.552 418.647 641.373L418.178 635.202C418.178 635.022 417.993 634.879 417.795 634.879H416.808C416.611 634.879 416.463 635.022 416.475 635.202L416.932 641.373C416.944 641.552 417.092 641.696 417.314 641.696Z" fill="black"/>
<path d="M431.9 641.696H432.887C433.085 641.696 433.233 641.552 433.22 641.373L432.764 635.202C432.764 635.022 432.579 634.879 432.381 634.879H431.394C431.197 634.879 431.036 635.022 431.049 635.202L431.517 641.373C431.554 641.552 431.727 641.696 431.9 641.696Z" fill="#03045E"/>
<path opacity="0.4" d="M431.9 641.696H432.887C433.085 641.696 433.233 641.552 433.22 641.373L432.764 635.202C432.764 635.022 432.579 634.879 432.381 634.879H431.394C431.197 634.879 431.036 635.022 431.049 635.202L431.517 641.373C431.554 641.552 431.727 641.696 431.9 641.696Z" fill="black"/>
<path d="M461.911 575.354C462.318 579.839 462.639 584.324 463.009 588.809L463.947 602.282C464.28 606.767 464.515 611.252 464.786 615.755L465.218 622.518L465.317 624.204C465.317 624.384 465.317 625.083 465.378 625.568C465.397 626.088 465.397 626.609 465.378 627.129C465.229 629.056 464.809 630.919 464.144 632.6C463.073 635.196 461.655 637.453 459.974 639.238C458.563 640.78 457.069 642.154 455.506 643.346C452.585 645.529 449.553 647.382 446.437 648.89C440.401 651.833 434.211 654.053 427.927 655.528L426.915 649.087C429.79 647.706 432.727 646.288 435.553 644.71C438.378 643.131 441.241 641.57 443.969 639.758C446.656 638.047 449.262 636.076 451.767 633.856C452.916 632.83 454.009 631.679 455.038 630.412C455.839 629.466 456.505 628.302 457 626.985C457.107 626.697 457.17 626.379 457.185 626.052L456.975 623.917L456.321 617.208C455.889 612.741 455.408 608.238 455.087 603.789L453.915 590.352C453.581 585.849 453.186 581.382 452.903 576.879L461.911 575.354Z" fill="#FFB573"/>
<path d="M457.654 559.62C461.356 561.235 465.699 579.534 465.699 579.534L452.878 598.676C452.878 598.676 446.313 578.942 447.856 572.143C449.485 564.984 453.483 557.791 457.654 559.62Z" fill="#263238"/>
</g>
<path d="M427.569 395.29H265.544C264.124 395.29 262.762 394.47 261.758 393.01C260.753 391.549 260.189 389.569 260.189 387.504C260.189 386.482 260.328 385.471 260.597 384.527C260.866 383.584 261.261 382.726 261.758 382.005C262.256 381.283 262.846 380.711 263.496 380.322C264.146 379.933 264.842 379.734 265.544 379.736H427.569C428.986 379.736 430.345 380.554 431.347 382.011C432.349 383.468 432.912 385.444 432.912 387.504C432.914 388.526 432.777 389.538 432.509 390.482C432.241 391.427 431.848 392.285 431.351 393.008C430.855 393.732 430.265 394.305 429.616 394.697C428.967 395.088 428.271 395.29 427.569 395.29Z" fill="white"/>
<path d="M389.944 427.995H265.544C264.842 427.997 264.146 427.798 263.496 427.409C262.846 427.019 262.256 426.447 261.758 425.726C261.261 425.004 260.866 424.147 260.597 423.203C260.328 422.26 260.189 421.248 260.189 420.227C260.189 418.162 260.753 416.181 261.758 414.721C262.762 413.261 264.124 412.441 265.544 412.441H389.944C391.364 412.441 392.727 413.261 393.731 414.721C394.735 416.181 395.3 418.162 395.3 420.227C395.3 421.248 395.161 422.26 394.892 423.203C394.622 424.147 394.228 425.004 393.73 425.726C393.233 426.447 392.642 427.019 391.993 427.409C391.343 427.798 390.647 427.997 389.944 427.995Z" fill="white"/>
<path d="M289.644 546.56H351.456C352.876 546.56 354.238 545.74 355.242 544.28C356.247 542.819 356.811 540.839 356.811 538.774C356.811 537.752 356.672 536.741 356.403 535.797C356.134 534.854 355.739 533.997 355.242 533.275C354.744 532.553 354.154 531.982 353.504 531.592C352.854 531.203 352.158 531.004 351.456 531.006H289.644C288.227 531.006 286.868 531.825 285.866 533.281C284.864 534.738 284.301 536.714 284.301 538.774C284.3 539.796 284.437 540.808 284.704 541.752C284.972 542.697 285.366 543.555 285.862 544.279C286.358 545.002 286.948 545.576 287.597 545.967C288.246 546.359 288.942 546.56 289.644 546.56Z" fill="white"/>
<path d="M220.96 546.56H263.607C264.31 546.56 265.006 546.359 265.655 545.967C266.304 545.576 266.893 545.002 267.39 544.279C267.886 543.555 268.279 542.697 268.547 541.752C268.815 540.808 268.952 539.796 268.95 538.774C268.95 536.714 268.387 534.738 267.385 533.281C266.383 531.825 265.024 531.006 263.607 531.006H220.96C219.543 531.006 218.184 531.825 217.182 533.281C216.18 534.738 215.617 536.714 215.617 538.774C215.615 539.796 215.752 540.808 216.02 541.752C216.288 542.697 216.681 543.555 217.177 544.279C217.674 545.002 218.263 545.576 218.912 545.967C219.562 546.359 220.257 546.56 220.96 546.56Z" fill="white"/>
<path d="M189.431 579.265H351.456C352.158 579.267 352.854 579.068 353.504 578.679C354.154 578.289 354.744 577.717 355.242 576.996C355.739 576.274 356.134 575.417 356.403 574.474C356.673 573.53 356.811 572.518 356.811 571.497C356.811 569.432 356.247 567.451 355.243 565.991C354.238 564.531 352.876 563.711 351.456 563.711H189.431C188.729 563.711 188.033 563.912 187.384 564.304C186.735 564.695 186.145 565.269 185.649 565.992C185.152 566.716 184.759 567.574 184.491 568.518C184.224 569.463 184.086 570.475 184.088 571.497C184.088 573.557 184.651 575.533 185.653 576.99C186.655 578.446 188.014 579.265 189.431 579.265Z" fill="white"/>
<path d="M123.19 170.43C123.19 171.91 122.888 173.357 122.322 174.588C121.756 175.819 120.952 176.778 120.011 177.343C119.07 177.909 118.035 178.056 117.036 177.766C116.037 177.476 115.121 176.762 114.401 175.713C113.682 174.665 113.193 173.331 112.996 171.878C112.799 170.426 112.903 168.921 113.294 167.555C113.685 166.188 114.347 165.021 115.195 164.201C116.042 163.381 117.039 162.945 118.057 162.949C119.419 162.954 120.725 163.744 121.687 165.146C122.65 166.549 123.19 168.449 123.19 170.43Z" fill="white"/>
<path d="M135.543 177.911C138.384 177.911 140.688 174.562 140.688 170.43C140.688 166.298 138.384 162.949 135.543 162.949C132.701 162.949 130.397 166.298 130.397 170.43C130.397 174.562 132.701 177.911 135.543 177.911Z" fill="white"/>
<path d="M153.028 177.911C155.87 177.911 158.174 174.562 158.174 170.43C158.174 166.298 155.87 162.949 153.028 162.949C150.186 162.949 147.883 166.298 147.883 170.43C147.883 174.562 150.186 177.911 153.028 177.911Z" fill="white"/>
</svg>
