<svg width="79" height="79" viewBox="0 0 79 79" fill="none" xmlns="http://www.w3.org/2000/svg">
<path fill-rule="evenodd" clip-rule="evenodd" d="M33.1194 7.03064C31.8229 7.03064 30.5795 7.54567 29.6627 8.46243C28.746 9.37919 28.2309 10.6226 28.2309 11.9191H23.3425C22.046 11.9191 20.8026 12.4341 19.8858 13.3509C18.9691 14.2676 18.4541 15.511 18.4541 16.8075V62.4329C18.4541 63.7294 18.9691 64.9728 19.8858 65.8895C20.8026 66.8063 22.046 67.3213 23.3425 67.3213H42.8962V64.0624H23.3425C22.9103 64.0624 22.4959 63.8907 22.1903 63.5851C21.8847 63.2795 21.713 62.8651 21.713 62.4329V16.8075C21.713 16.3753 21.8847 15.9609 22.1903 15.6553C22.4959 15.3497 22.9103 15.178 23.3425 15.178H28.2309C28.2309 16.4745 28.746 17.7179 29.6627 18.6347C30.5795 19.5514 31.8229 20.0665 33.1194 20.0665H46.1552C47.4517 20.0665 48.6951 19.5514 49.6118 18.6347C50.5286 17.7179 51.0436 16.4745 51.0436 15.178H55.9321C56.3642 15.178 56.7787 15.3497 57.0843 15.6553C57.3899 15.9609 57.5615 16.3753 57.5615 16.8075V41.2497H60.8205V16.8075C60.8205 15.511 60.3055 14.2676 59.3887 13.3509C58.4719 12.4341 57.2285 11.9191 55.9321 11.9191H51.0436C51.0436 10.6226 50.5286 9.37919 49.6118 8.46243C48.6951 7.54567 47.4517 7.03064 46.1552 7.03064H33.1194ZM31.4899 11.9191C31.4899 11.4869 31.6616 11.0724 31.9671 10.7669C32.2727 10.4613 32.6872 10.2896 33.1194 10.2896H46.1552C46.5873 10.2896 47.0018 10.4613 47.3074 10.7669C47.613 11.0724 47.7847 11.4869 47.7847 11.9191V15.178C47.7847 15.6102 47.613 16.0247 47.3074 16.3302C47.0018 16.6358 46.5873 16.8075 46.1552 16.8075H33.1194C32.6872 16.8075 32.2727 16.6358 31.9671 16.3302C31.6616 16.0247 31.4899 15.6102 31.4899 15.178V11.9191ZM38.0078 31.4728V26.5844H41.2667V31.4728H46.1552V34.7318H41.2667V39.6202H38.0078V34.7318H33.1194V31.4728H38.0078ZM44.5257 46.1381C44.5257 45.7059 44.6974 45.2915 45.003 44.9859C45.3086 44.6803 45.723 44.5086 46.1552 44.5086H65.7089C66.1411 44.5086 66.5555 44.6803 66.8611 44.9859C67.1667 45.2915 67.3384 45.7059 67.3384 46.1381V57.2006C67.3383 59.0783 66.8747 60.927 65.9887 62.5825C65.1027 64.238 63.8216 65.6491 62.2593 66.6907L56.8364 70.3082C56.5686 70.4868 56.254 70.5821 55.9321 70.5821C55.6102 70.5821 55.2955 70.4868 55.0277 70.3082L49.6048 66.6907C48.0427 65.6493 46.7618 64.2384 45.8758 62.5832C44.9898 60.928 44.526 59.0797 44.5257 57.2023V46.1381ZM47.7847 47.7676V57.2006C47.7848 58.5419 48.1161 59.8624 48.7492 61.0449C49.3822 62.2275 50.2974 63.2354 51.4135 63.9793L55.9321 66.9954L60.4506 63.9809C61.5667 63.237 62.4819 62.2291 63.1149 61.0466C63.748 59.8641 64.0793 58.5436 64.0794 57.2023V47.7676H47.7847ZM55.4546 60.326L61.9725 53.8081L59.6684 51.504L54.3026 56.8699L52.1957 54.7629L49.8916 57.067L53.1505 60.326C53.4561 60.6315 53.8705 60.8031 54.3026 60.8031C54.7346 60.8031 55.149 60.6315 55.4546 60.326Z" fill="#FF9E00"/>
</svg>
