<svg width="127" height="129" viewBox="0 0 127 129" fill="none" xmlns="http://www.w3.org/2000/svg">
<ellipse opacity="0.8" cx="63.4629" cy="64.0367" rx="62.572" ry="64.0367" fill="#00B4D8"/>
<path d="M61.6418 51.029C61.6418 50.5792 61.8453 50.1478 62.2075 49.8297C62.5697 49.5116 63.061 49.3329 63.5733 49.3329H79.025C79.5373 49.3329 80.0286 49.5116 80.3908 49.8297C80.753 50.1478 80.9565 50.5792 80.9565 51.029C80.9565 51.4788 80.753 51.9103 80.3908 52.2283C80.0286 52.5464 79.5373 52.7251 79.025 52.7251H63.5733C63.061 52.7251 62.5697 52.5464 62.2075 52.2283C61.8453 51.9103 61.6418 51.4788 61.6418 51.029ZM63.5733 56.1174C63.061 56.1174 62.5697 56.2961 62.2075 56.6141C61.8453 56.9322 61.6418 57.3636 61.6418 57.8135C61.6418 58.2633 61.8453 58.6947 62.2075 59.0128C62.5697 59.3309 63.061 59.5096 63.5733 59.5096H79.025C79.5373 59.5096 80.0286 59.3309 80.3908 59.0128C80.753 58.6947 80.9565 58.2633 80.9565 57.8135C80.9565 57.3636 80.753 56.9322 80.3908 56.6141C80.0286 56.2961 79.5373 56.1174 79.025 56.1174H63.5733ZM61.6418 73.0785C61.6418 72.6287 61.8453 72.1973 62.2075 71.8792C62.5697 71.5611 63.061 71.3824 63.5733 71.3824H79.025C79.5373 71.3824 80.0286 71.5611 80.3908 71.8792C80.753 72.1973 80.9565 72.6287 80.9565 73.0785C80.9565 73.5284 80.753 73.9598 80.3908 74.2779C80.0286 74.596 79.5373 74.7747 79.025 74.7747H63.5733C63.061 74.7747 62.5697 74.596 62.2075 74.2779C61.8453 73.9598 61.6418 73.5284 61.6418 73.0785ZM63.5733 78.1669C63.061 78.1669 62.5697 78.3456 62.2075 78.6637C61.8453 78.9818 61.6418 79.4132 61.6418 79.863C61.6418 80.3128 61.8453 80.7443 62.2075 81.0623C62.5697 81.3804 63.061 81.5591 63.5733 81.5591H79.025C79.5373 81.5591 80.0286 81.3804 80.3908 81.0623C80.753 80.7443 80.9565 80.3128 80.9565 79.863C80.9565 79.4132 80.753 78.9818 80.3908 78.6637C80.0286 78.3456 79.5373 78.1669 79.025 78.1669H63.5733Z" fill="#263238"/>
<path d="M42.3524 51.0743C42.3524 50.6245 42.5559 50.193 42.9182 49.875C43.2804 49.5569 43.7717 49.3782 44.2839 49.3782H59.7357C60.2479 49.3782 60.7392 49.5569 61.1014 49.875C61.4637 50.193 61.6672 50.6245 61.6672 51.0743C61.6672 51.5241 61.4637 51.9555 61.1014 52.2736C60.7392 52.5917 60.2479 52.7704 59.7357 52.7704H44.2839C43.7717 52.7704 43.2804 52.5917 42.9182 52.2736C42.5559 51.9555 42.3524 51.5241 42.3524 51.0743ZM44.2839 56.1626C43.7717 56.1626 43.2804 56.3413 42.9182 56.6594C42.5559 56.9775 42.3524 57.4089 42.3524 57.8588C42.3524 58.3086 42.5559 58.74 42.9182 59.0581C43.2804 59.3762 43.7717 59.5549 44.2839 59.5549H59.7357C60.2479 59.5549 60.7392 59.3762 61.1014 59.0581C61.4637 58.74 61.6672 58.3086 61.6672 57.8588C61.6672 57.4089 61.4637 56.9775 61.1014 56.6594C60.7392 56.3413 60.2479 56.1626 59.7357 56.1626H44.2839ZM42.3524 73.1238C42.3524 72.674 42.5559 72.2426 42.9182 71.9245C43.2804 71.6064 43.7717 71.4277 44.2839 71.4277H59.7357C60.2479 71.4277 60.7392 71.6064 61.1014 71.9245C61.4637 72.2426 61.6672 72.674 61.6672 73.1238C61.6672 73.5737 61.4637 74.0051 61.1014 74.3232C60.7392 74.6412 60.2479 74.8199 59.7357 74.8199H44.2839C43.7717 74.8199 43.2804 74.6412 42.9182 74.3232C42.5559 74.0051 42.3524 73.5737 42.3524 73.1238ZM44.2839 78.2122C43.7717 78.2122 43.2804 78.3909 42.9182 78.709C42.5559 79.027 42.3524 79.4585 42.3524 79.9083C42.3524 80.3581 42.5559 80.7896 42.9182 81.1076C43.2804 81.4257 43.7717 81.6044 44.2839 81.6044H59.7357C60.2479 81.6044 60.7392 81.4257 61.1014 81.1076C61.4637 80.7896 61.6672 80.3581 61.6672 79.9083C61.6672 79.4585 61.4637 79.027 61.1014 78.709C60.7392 78.3909 60.2479 78.2122 59.7357 78.2122H44.2839Z" fill="#263238"/>
<path fill-rule="evenodd" clip-rule="evenodd" d="M42.3273 35.7637C40.2782 35.7637 38.3131 36.4785 36.8642 37.7509C35.4154 39.0232 34.6014 40.7489 34.6014 42.5482V90.0395C34.6014 91.8389 35.4154 93.5645 36.8642 94.8368C38.3131 96.1092 40.2782 96.824 42.3273 96.824H80.9567C83.0057 96.824 84.9708 96.1092 86.4197 94.8368C87.8686 93.5645 88.6826 91.8389 88.6826 90.0395V42.5482C88.6826 40.7489 87.8686 39.0232 86.4197 37.7509C84.9708 36.4785 83.0057 35.7637 80.9567 35.7637H42.3273ZM38.4643 42.5482C38.4643 41.6485 38.8713 40.7857 39.5958 40.1495C40.3202 39.5134 41.3027 39.156 42.3273 39.156H80.9567C81.9812 39.156 82.9637 39.5134 83.6882 40.1495C84.4126 40.7857 84.8196 41.6485 84.8196 42.5482V90.0395C84.8196 90.9392 84.4126 91.802 83.6882 92.4382C82.9637 93.0743 81.9812 93.4317 80.9567 93.4317H42.3273C41.3027 93.4317 40.3202 93.0743 39.5958 92.4382C38.8713 91.802 38.4643 90.9392 38.4643 90.0395V42.5482ZM92.5455 52.7249C92.5455 51.3754 93.156 50.0812 94.2426 49.1269C95.3293 48.1726 96.8031 47.6366 98.3399 47.6366C99.8767 47.6366 101.351 48.1726 102.437 49.1269C103.524 50.0812 104.134 51.3754 104.134 52.7249V87.1612L98.3399 94.7937L92.5455 87.1612V52.7249ZM98.3399 51.0288C97.8277 51.0288 97.3364 51.2075 96.9742 51.5256C96.6119 51.8437 96.4084 52.2751 96.4084 52.7249V56.1171H100.271V52.7249C100.271 52.2751 100.068 51.8437 99.7057 51.5256C99.3434 51.2075 98.8522 51.0288 98.3399 51.0288ZM98.3399 88.6775L96.4084 86.1333V59.5094H100.271V86.1333L98.3399 88.6775Z" fill="#263238"/>
<path d="M70.322 32.695C71.6947 33.534 72.5016 34.8837 72.4966 36.6154C72.494 37.5071 72.2312 38.2962 71.7254 38.9581C71.2274 39.6104 70.5502 40.0609 69.8516 40.3698C69.448 40.5499 69.0228 40.6878 68.593 40.7944C68.827 41.3695 68.9676 42.0614 68.9652 42.8823C68.962 43.9892 68.404 45.0063 67.6081 45.737C66.8091 46.4676 65.6587 47.0123 64.3518 47.0094L64.0666 47.0088C64.191 47.429 64.2528 47.8616 64.2504 48.2957C64.2457 49.9022 63.2408 51.0831 62.0852 51.7952C60.9732 52.4816 59.5722 52.8365 58.3709 52.7576L39.5666 51.7475C31.2118 51.2018 25.9427 44.602 25.9607 38.4252C25.9759 33.1837 30.1918 27.693 37.0885 25.8324C37.5276 25.7136 38.1919 25.436 39.0692 24.99C40.0523 24.4802 41.0156 23.9416 41.9575 23.375C43.2764 22.5843 44.5852 21.7808 45.8838 20.9646C46.7396 20.4314 47.5861 19.9037 48.403 19.4046C50.4469 18.1566 53.4503 18.5622 55.2877 20.0721C56.2498 20.8612 56.7741 21.7977 56.8425 22.8121C56.9094 23.7857 56.5425 24.6793 56.0598 25.4161C55.9059 25.6512 55.7365 25.8781 55.5524 26.0957L63.0383 25.7994C65.6109 25.6173 67.7571 27.0257 68.6793 28.7364C69.1527 29.6142 69.3496 30.6493 69.0583 31.6752C69.0191 31.8113 68.9722 31.9459 68.9176 32.0779C69.4133 32.226 69.8855 32.4286 70.322 32.695ZM39.7869 49.0319L58.571 50.0406L58.5959 50.042C59.0144 50.0702 59.7155 49.9288 60.3026 49.5666C60.854 49.2275 61.1482 48.7993 61.1497 48.2888C61.1568 47.8304 61.0003 47.3816 60.7023 47.0053L52.2042 46.6949C51.7997 46.6723 51.4214 46.5116 51.1502 46.247C50.879 45.9825 50.7366 45.6352 50.7535 45.2796C50.7703 44.924 50.9451 44.5883 51.2403 44.3445C51.5356 44.1007 51.9278 43.968 52.333 43.9751L61.1365 44.297C61.2171 44.2862 61.2985 44.2809 61.38 44.2812L64.3597 44.2879C64.662 44.2886 65.0392 44.156 65.3687 43.8545C65.6983 43.5517 65.8637 43.1831 65.8646 42.8754C65.8676 41.8366 65.5294 41.3934 65.3639 41.2283C65.3235 41.188 65.2789 41.151 65.2309 41.1177C65.1534 41.1121 65.0759 41.1092 64.9984 41.109L64.9643 41.109L55.1208 40.703C54.9163 40.696 54.7154 40.6536 54.5297 40.5781C54.344 40.5027 54.1771 40.3957 54.0387 40.2633C53.9003 40.131 53.7931 39.9759 53.7233 39.807C53.6535 39.638 53.6225 39.4587 53.632 39.2792C53.6415 39.0997 53.6914 38.9236 53.7788 38.7611C53.8662 38.5986 53.9893 38.4529 54.1412 38.3325C54.293 38.212 54.4705 38.1191 54.6634 38.0591C54.8563 37.9992 55.0608 37.9733 55.2651 37.9831L65.0435 38.3863C65.2172 38.3866 65.3923 38.3952 65.5675 38.4106L65.6093 38.4093C66.69 38.3954 67.7338 38.2616 68.454 37.9419C68.7321 37.8309 68.9725 37.6583 69.1516 37.4411C69.2808 37.2712 69.3947 37.0196 69.3959 36.6098C69.3985 35.6949 69.0185 35.2176 68.5512 34.932C68.1751 34.7024 67.6484 34.542 67.0006 34.4874L66.7711 34.491L66.2362 34.4966L54.2509 34.8931C53.8451 34.8994 53.4528 34.7656 53.158 34.5207C52.8633 34.2757 52.6897 33.939 52.6745 33.5829C52.6593 33.2268 52.8037 32.8796 53.0767 32.616C53.3497 32.3523 53.7296 32.1932 54.1347 32.1727L65.4301 31.7978C65.8138 31.5345 65.9821 31.2585 66.051 31.0163C66.1403 30.7007 66.098 30.3126 65.8775 29.9037C65.4149 29.0463 64.3702 28.4326 63.2723 28.5173C63.2506 28.519 63.2289 28.5204 63.2072 28.5213L63.0568 28.5264L49.5854 29.7038L46.7214 30.9526C47.2359 32.1028 47.5574 33.5003 47.6244 34.9708C47.7267 37.1181 47.2964 39.5663 45.9905 41.8452C45.8058 42.1679 45.4826 42.413 45.0921 42.5265C44.7016 42.64 44.2757 42.6126 43.9082 42.4504C43.5407 42.2882 43.2616 42.0044 43.1323 41.6615C43.0031 41.3185 43.0342 40.9446 43.219 40.6218C44.2505 38.8216 44.6098 36.8469 44.5281 35.081C44.4434 33.2851 43.9127 31.8489 43.3443 31.0948C43.2226 30.9338 43.1414 30.752 43.1059 30.5613C43.0704 30.3706 43.0815 30.1755 43.1385 29.9889C43.1955 29.8023 43.2971 29.6285 43.4365 29.479C43.5759 29.3296 43.7499 29.2079 43.947 29.122L48.2578 27.242C48.296 27.2197 48.3354 27.1989 48.3758 27.1797C49.6873 26.5512 50.9916 25.9111 52.2882 25.2593C52.7061 24.9018 53.07 24.4986 53.3708 24.0596C53.6666 23.6082 53.7654 23.2477 53.746 22.974C53.7312 22.7398 53.6235 22.4346 53.1688 22.0619C52.2068 21.2728 50.8131 21.2506 50.1717 21.6426C49.4106 22.1065 48.5844 22.622 47.7332 23.1511C46.3928 23.9867 44.9934 24.859 43.692 25.6321C42.6158 26.2696 41.5691 26.8662 40.6235 27.3474C39.6982 27.8178 38.7854 28.2242 37.9987 28.4361C32.3867 29.9511 29.0715 34.3983 29.0598 38.4335C29.0452 43.4436 33.3417 48.6076 39.7869 49.0319Z" fill="#263238"/>
</svg>
