<svg width="850" height="893" viewBox="0 0 850 893" fill="none" xmlns="http://www.w3.org/2000/svg">
<rect width="893" height="893" fill="white"/>
<path d="M803.521 711.703H744.369V712.15H803.521V711.703Z" fill="#EBEBEB"/>
<path d="M591.559 716.561H576.039V717.008H591.559V716.561Z" fill="#EBEBEB"/>
<path d="M742.583 695.129H708.31V695.576H742.583V695.129Z" fill="#EBEBEB"/>
<path d="M170.831 698.13H93.6936V698.576H170.831V698.13Z" fill="#EBEBEB"/>
<path d="M198.05 698.13H186.744V698.576H198.05V698.13Z" fill="#EBEBEB"/>
<path d="M402.118 705.666H234.805V706.113H402.118V705.666Z" fill="#EBEBEB"/>
<path d="M423.282 603.311H78.4411C75.7364 603.311 73.1425 602.236 71.23 600.324C69.3175 598.411 68.2431 595.817 68.2431 593.113V108.339C68.2666 105.65 69.3514 103.079 71.2614 101.185C73.1713 99.292 75.7518 98.2299 78.4411 98.23H423.282C425.987 98.23 428.581 99.3044 430.493 101.217C432.406 103.129 433.48 105.723 433.48 108.428V593.113C433.48 595.817 432.406 598.411 430.493 600.324C428.581 602.236 425.987 603.311 423.282 603.311ZM78.4411 98.5872C75.8563 98.5919 73.3787 99.6208 71.5509 101.449C69.7232 103.276 68.6943 105.754 68.6896 108.339V593.113C68.6943 595.698 69.7232 598.175 71.5509 600.003C73.3787 601.831 75.8563 602.859 78.4411 602.864H423.282C425.867 602.859 428.344 601.831 430.172 600.003C432 598.175 433.029 595.698 433.034 593.113V108.339C433.029 105.754 432 103.276 430.172 101.449C428.344 99.6208 425.867 98.5919 423.282 98.5872H78.4411Z" fill="#EBEBEB"/>
<path d="M809.612 603.311H464.735C462.032 603.306 459.441 602.23 457.529 600.319C455.618 598.407 454.542 595.816 454.537 593.113V108.339C454.565 105.651 455.652 103.083 457.56 101.19C459.469 99.2982 462.047 98.2345 464.735 98.23H809.612C812.295 98.2393 814.866 99.3056 816.768 101.198C818.671 103.09 819.751 105.656 819.774 108.339V593.113C819.774 595.811 818.705 598.4 816.8 600.311C814.895 602.223 812.31 603.301 809.612 603.311ZM464.735 98.5872C462.15 98.5919 459.673 99.6208 457.845 101.449C456.017 103.276 454.988 105.754 454.984 108.339V593.113C454.988 595.698 456.017 598.175 457.845 600.003C459.673 601.831 462.15 602.859 464.735 602.864H809.612C812.197 602.859 814.674 601.831 816.502 600.003C818.33 598.175 819.359 595.698 819.363 593.113V108.339C819.359 105.754 818.33 103.276 816.502 101.449C814.674 99.6208 812.197 98.5919 809.612 98.5872H464.735Z" fill="#EBEBEB"/>
<path d="M893 682.966H0V683.413H893V682.966Z" fill="#EBEBEB"/>
<path d="M744.673 435.855H588.166V671.304H744.673V435.855Z" fill="#F5F5F5"/>
<path d="M778.428 435.855H744.673V671.304H778.428V435.855Z" fill="#EBEBEB"/>
<path d="M733.189 453.323H600.56V510.51H733.189V453.323Z" fill="#FAFAFA"/>
<path d="M657.141 453.323L657.802 460.949C657.917 462.158 658.478 463.282 659.376 464.101C660.274 464.919 661.444 465.375 662.66 465.378H671.089C672.305 465.375 673.475 464.919 674.373 464.101C675.271 463.282 675.832 462.158 675.947 460.949L676.608 453.323H657.141Z" fill="#EBEBEB"/>
<path d="M733.189 516.743H600.56V573.931H733.189V516.743Z" fill="#FAFAFA"/>
<path d="M657.141 516.743L657.802 524.37C657.913 525.583 658.472 526.71 659.371 527.533C660.269 528.355 661.442 528.813 662.66 528.817H671.089C672.307 528.813 673.48 528.355 674.378 527.533C675.277 526.71 675.836 525.583 675.947 524.37L676.608 516.743H657.141Z" fill="#EBEBEB"/>
<path d="M733.189 580.164H600.56V637.352H733.189V580.164Z" fill="#FAFAFA"/>
<path d="M657.141 580.164L657.802 587.791C657.912 588.994 658.464 590.115 659.351 590.936C660.238 591.757 661.397 592.221 662.606 592.238H671.036C672.254 592.234 673.427 591.776 674.325 590.954C675.223 590.131 675.783 589.003 675.894 587.791L676.555 580.164H657.141Z" fill="#EBEBEB"/>
<path d="M733.189 683.056H602.418L600.56 671.286H733.189V683.056Z" fill="#E6E6E6"/>
<path d="M764.783 683.056H733.189V671.286H766.641L764.783 683.056Z" fill="#E0E0E0"/>
<path d="M665.499 436.105H720.133L714.078 366.809H659.445L665.499 436.105Z" fill="#FAFAFA"/>
<path d="M665.499 436.105H662.892L656.819 366.809H659.445L665.499 436.105Z" fill="#EBEBEB"/>
<path d="M670.447 429.033H713.954L709.114 373.881H665.624L670.447 429.033Z" fill="#F0F0F0"/>
<path d="M673.644 424.497H709.971L705.934 378.418H669.607L673.644 424.497Z" fill="#E6E6E6"/>
<path d="M708.453 436.106L705.166 398.51H752.835L756.139 436.106H708.453Z" fill="#F0F0F0"/>
<path d="M708.453 436.106L705.166 398.51H702.595L705.899 436.106H708.453Z" fill="#E0E0E0"/>
<path d="M712.989 432.266L710.364 402.35H748.316L750.942 432.266H712.989Z" fill="#EBEBEB"/>
<path d="M715.9 429.801L713.703 404.815H745.405L747.602 429.801H715.9Z" fill="#F5F5F5"/>
<path d="M114.018 616.616H276.776V560.429H114.018V616.616Z" fill="#EBEBEB"/>
<path d="M114.018 672.804H276.776V616.616H114.018V672.804Z" fill="#EBEBEB"/>
<path d="M282.474 616.616H445.232V560.429H282.474V616.616Z" fill="#EBEBEB"/>
<path d="M282.474 672.804H445.232V616.616H282.474V672.804Z" fill="#EBEBEB"/>
<path d="M383.365 616.616L363.13 560.447H394.295L414.531 616.616H383.365Z" fill="#F0F0F0"/>
<path d="M348.038 560.447H354.878L375.131 616.616H368.291L348.038 560.447Z" fill="#F0F0F0"/>
<path d="M403.618 672.804L383.365 616.616H414.531L434.784 672.804H403.618Z" fill="#F0F0F0"/>
<path d="M368.291 616.616H375.131L395.385 672.804H388.544L368.291 616.616Z" fill="#F0F0F0"/>
<path d="M150.578 616.616L130.342 560.447H161.508L181.761 616.616H150.578Z" fill="#F0F0F0"/>
<path d="M115.251 560.447H122.091L142.344 616.616H135.504L115.251 560.447Z" fill="#F0F0F0"/>
<path d="M170.831 672.804L150.578 616.616H181.761L201.997 672.804H170.831Z" fill="#F0F0F0"/>
<path d="M135.504 616.616H142.344L162.597 672.804H155.757L135.504 616.616Z" fill="#F0F0F0"/>
<path d="M445.214 569.073V563.394H282.456V569.073H445.214Z" fill="#E0E0E0"/>
<path d="M445.214 624.814V619.135H282.456V624.814H445.214Z" fill="#E0E0E0"/>
<path d="M359.683 595.72C359.345 595.749 359.005 595.708 358.684 595.598C358.363 595.489 358.069 595.314 357.819 595.085C357.569 594.856 357.37 594.577 357.234 594.267C357.097 593.957 357.027 593.621 357.027 593.282C357.027 592.943 357.097 592.608 357.234 592.298C357.37 591.988 357.569 591.709 357.819 591.48C358.069 591.251 358.363 591.076 358.684 590.966C359.005 590.857 359.345 590.816 359.683 590.845H368.005C368.343 590.816 368.683 590.857 369.004 590.966C369.325 591.076 369.619 591.251 369.869 591.48C370.119 591.709 370.318 591.988 370.454 592.298C370.591 592.608 370.661 592.943 370.661 593.282C370.661 593.621 370.591 593.957 370.454 594.267C370.318 594.577 370.119 594.856 369.869 595.085C369.619 595.314 369.325 595.489 369.004 595.598C368.683 595.708 368.343 595.749 368.005 595.72H359.683Z" fill="#E6E6E6"/>
<path d="M359.683 594.863C359.345 594.892 359.005 594.85 358.684 594.741C358.363 594.632 358.069 594.457 357.819 594.228C357.569 593.998 357.37 593.72 357.234 593.41C357.097 593.099 357.027 592.764 357.027 592.425C357.027 592.086 357.097 591.751 357.234 591.441C357.37 591.13 357.569 590.852 357.819 590.623C358.069 590.393 358.363 590.219 358.684 590.109C359.005 590 359.345 589.958 359.683 589.987H368.005C368.343 589.958 368.683 590 369.004 590.109C369.325 590.219 369.619 590.393 369.869 590.623C370.119 590.852 370.318 591.13 370.454 591.441C370.591 591.751 370.661 592.086 370.661 592.425C370.661 592.764 370.591 593.099 370.454 593.41C370.318 593.72 370.119 593.998 369.869 594.228C369.619 594.457 369.325 594.632 369.004 594.741C368.683 594.85 368.343 594.892 368.005 594.863H359.683Z" fill="#E0E0E0"/>
<path d="M359.683 647.586C359.345 647.615 359.005 647.573 358.684 647.464C358.363 647.354 358.069 647.179 357.819 646.95C357.569 646.721 357.37 646.442 357.234 646.132C357.097 645.822 357.027 645.487 357.027 645.148C357.027 644.809 357.097 644.474 357.234 644.163C357.37 643.853 357.569 643.574 357.819 643.345C358.069 643.116 358.363 642.941 358.684 642.832C359.005 642.723 359.345 642.681 359.683 642.71H368.005C368.343 642.681 368.683 642.723 369.004 642.832C369.325 642.941 369.619 643.116 369.869 643.345C370.119 643.574 370.318 643.853 370.454 644.163C370.591 644.474 370.661 644.809 370.661 645.148C370.661 645.487 370.591 645.822 370.454 646.132C370.318 646.442 370.119 646.721 369.869 646.95C369.619 647.179 369.325 647.354 369.004 647.464C368.683 647.573 368.343 647.615 368.005 647.586H359.683Z" fill="#E6E6E6"/>
<path d="M359.683 646.728C359.034 646.728 358.411 646.471 357.952 646.012C357.494 645.553 357.236 644.93 357.236 644.282C357.236 643.633 357.494 643.01 357.952 642.551C358.411 642.093 359.034 641.835 359.683 641.835H368.005C368.654 641.835 369.277 642.093 369.735 642.551C370.194 643.01 370.452 643.633 370.452 644.282C370.452 644.93 370.194 645.553 369.735 646.012C369.277 646.471 368.654 646.728 368.005 646.728H359.683Z" fill="#E0E0E0"/>
<path d="M279.616 557.929V675.251H448.072V557.929H279.616ZM285.314 619.599H442.374V669.607H285.314V619.599ZM285.314 563.93H442.374V613.938H285.314V563.93Z" fill="#F5F5F5"/>
<path d="M276.776 569.073V563.394H114.018V569.073H276.776Z" fill="#E0E0E0"/>
<path d="M276.776 624.814V619.135H114.018V624.814H276.776Z" fill="#E0E0E0"/>
<path d="M191.227 595.72C190.616 595.668 190.048 595.388 189.633 594.937C189.219 594.486 188.989 593.895 188.989 593.282C188.989 592.67 189.219 592.079 189.633 591.628C190.048 591.176 190.616 590.897 191.227 590.844H199.568C200.178 590.897 200.747 591.176 201.161 591.628C201.576 592.079 201.806 592.67 201.806 593.282C201.806 593.895 201.576 594.486 201.161 594.937C200.747 595.388 200.178 595.668 199.568 595.72H191.227Z" fill="#E6E6E6"/>
<path d="M191.227 594.863C190.616 594.811 190.048 594.531 189.633 594.08C189.219 593.628 188.989 593.038 188.989 592.425C188.989 591.812 189.219 591.222 189.633 590.77C190.048 590.319 190.616 590.039 191.227 589.987H199.568C200.178 590.039 200.747 590.319 201.161 590.77C201.576 591.222 201.806 591.812 201.806 592.425C201.806 593.038 201.576 593.628 201.161 594.08C200.747 594.531 200.178 594.811 199.568 594.863H191.227Z" fill="#E0E0E0"/>
<path d="M191.227 647.586C190.616 647.533 190.048 647.254 189.633 646.803C189.219 646.351 188.989 645.761 188.989 645.148C188.989 644.535 189.219 643.945 189.633 643.493C190.048 643.042 190.616 642.762 191.227 642.71H199.568C200.178 642.762 200.747 643.042 201.161 643.493C201.576 643.945 201.806 644.535 201.806 645.148C201.806 645.761 201.576 646.351 201.161 646.803C200.747 647.254 200.178 647.533 199.568 647.586H191.227Z" fill="#E6E6E6"/>
<path d="M191.227 646.728C190.578 646.728 189.956 646.471 189.497 646.012C189.038 645.553 188.78 644.93 188.78 644.282C188.78 643.633 189.038 643.01 189.497 642.551C189.956 642.093 190.578 641.835 191.227 641.835H199.568C200.217 641.835 200.839 642.093 201.298 642.551C201.757 643.01 202.014 643.633 202.014 644.282C202.014 644.93 201.757 645.553 201.298 646.012C200.839 646.471 200.217 646.728 199.568 646.728H191.227Z" fill="#E0E0E0"/>
<path d="M111.178 557.929V675.251H279.616V557.929H111.178ZM116.858 619.599H273.937V669.607H116.858V619.599ZM116.858 563.93H273.937V613.938H116.858V563.93Z" fill="#F5F5F5"/>
<path d="M133.646 683.056H118.715L116.858 675.251H135.504L133.646 683.056Z" fill="#E0E0E0"/>
<path d="M439.803 683.056H424.889L423.014 675.251H441.66L439.803 683.056Z" fill="#E0E0E0"/>
<path d="M163.919 505.259C163.919 500.723 169.277 496.865 176.671 495.544L169.349 486.81H212.82L205.497 495.544C212.891 496.865 218.249 500.723 218.249 505.259C218.249 510.278 211.766 546.945 203.193 555.017L204.354 556.393C204.468 556.558 204.536 556.751 204.551 556.951C204.566 557.152 204.529 557.352 204.442 557.533C204.355 557.714 204.222 557.869 204.056 557.983C203.89 558.096 203.697 558.164 203.497 558.179H178.689C178.487 558.166 178.292 558.101 178.124 557.989C177.956 557.877 177.82 557.722 177.731 557.541C177.642 557.359 177.603 557.157 177.618 556.955C177.632 556.754 177.7 556.56 177.814 556.393L178.975 555.017C170.42 546.945 163.919 510.278 163.919 505.259Z" fill="#F0F0F0"/>
<path d="M246.075 537.193H186.405C186.405 543.194 191.906 548.463 200.193 551.481L198.407 558.25H233.966L232.269 551.481C240.574 548.463 246.075 543.194 246.075 537.193Z" fill="#E6E6E6"/>
<path d="M437.891 756.746C629.141 756.746 784.179 747.694 784.179 736.529C784.179 725.363 629.141 716.311 437.891 716.311C246.642 716.311 91.6039 725.363 91.6039 736.529C91.6039 747.694 246.642 756.746 437.891 756.746Z" fill="#FF9E00"/>
<path d="M594.899 134.414H186.012C178.92 134.414 173.171 140.164 173.171 147.256V431.051C173.171 438.143 178.92 443.892 186.012 443.892H594.899C601.991 443.892 607.74 438.143 607.74 431.051V147.256C607.74 140.164 601.991 134.414 594.899 134.414Z" fill="#03045E"/>
<path opacity="0.5" d="M594.899 134.414H186.012C178.92 134.414 173.171 140.164 173.171 147.256V431.051C173.171 438.143 178.92 443.892 186.012 443.892H594.899C601.991 443.892 607.74 438.143 607.74 431.051V147.256C607.74 140.164 601.991 134.414 594.899 134.414Z" fill="white"/>
<path opacity="0.5" d="M593.327 178.546H187.601C185.175 178.546 183.208 180.513 183.208 182.94V429.479C183.208 431.906 185.175 433.873 187.601 433.873H593.327C595.754 433.873 597.721 431.906 597.721 429.479V182.94C597.721 180.513 595.754 178.546 593.327 178.546Z" fill="white"/>
<path opacity="0.3" d="M536.282 146.452H528.102C525.193 146.452 522.834 148.811 522.834 151.721V159.9C522.834 162.81 525.193 165.169 528.102 165.169H536.282C539.192 165.169 541.551 162.81 541.551 159.9V151.721C541.551 148.811 539.192 146.452 536.282 146.452Z" fill="white"/>
<path opacity="0.5" d="M564.358 146.452H556.178C553.268 146.452 550.91 148.811 550.91 151.721V159.9C550.91 162.81 553.268 165.169 556.178 165.169H564.358C567.268 165.169 569.627 162.81 569.627 159.9V151.721C569.627 148.811 567.268 146.452 564.358 146.452Z" fill="white"/>
<path opacity="0.8" d="M592.452 146.452H584.272C581.362 146.452 579.003 148.811 579.003 151.721V159.9C579.003 162.81 581.362 165.169 584.272 165.169H592.452C595.362 165.169 597.721 162.81 597.721 159.9V151.721C597.721 148.811 595.362 146.452 592.452 146.452Z" fill="white"/>
<path d="M202.729 142.773H189.762C186.142 142.773 183.208 145.707 183.208 149.327V162.294C183.208 165.914 186.142 168.848 189.762 168.848H202.729C206.349 168.848 209.283 165.914 209.283 162.294V149.327C209.283 145.707 206.349 142.773 202.729 142.773Z" fill="#263238"/>
<path opacity="0.8" d="M567.144 194.585H277.973C274.008 194.585 270.793 197.799 270.793 201.764V218.16C270.793 222.125 274.008 225.34 277.973 225.34H567.144C571.11 225.34 574.324 222.125 574.324 218.16V201.764C574.324 197.799 571.11 194.585 567.144 194.585Z" fill="white"/>
<path opacity="0.8" d="M567.144 235.377H277.973C274.008 235.377 270.793 238.591 270.793 242.557V258.952C270.793 262.917 274.008 266.132 277.973 266.132H567.144C571.11 266.132 574.324 262.917 574.324 258.952V242.557C574.324 238.591 571.11 235.377 567.144 235.377Z" fill="white"/>
<path opacity="0.8" d="M567.144 282.813H277.973C274.008 282.813 270.793 286.027 270.793 289.993V409.512C270.793 413.477 274.008 416.692 277.973 416.692H567.144C571.11 416.692 574.324 413.477 574.324 409.512V289.993C574.324 286.027 571.11 282.813 567.144 282.813Z" fill="white"/>
<path d="M566.269 282.813H278.848C274.4 282.813 270.793 286.419 270.793 290.868V301.62C270.793 306.068 274.4 309.674 278.848 309.674H566.269C570.718 309.674 574.324 306.068 574.324 301.62V290.868C574.324 286.419 570.718 282.813 566.269 282.813Z" fill="#03045E"/>
<path opacity="0.5" d="M566.269 282.813H278.848C274.4 282.813 270.793 286.419 270.793 290.868V301.62C270.793 306.068 274.4 309.674 278.848 309.674H566.269C570.718 309.674 574.324 306.068 574.324 301.62V290.868C574.324 286.419 570.718 282.813 566.269 282.813Z" fill="white"/>
<path d="M212.248 332.946C212.526 333.33 212.671 333.794 212.659 334.268C212.689 334.615 212.625 334.964 212.475 335.278C212.324 335.592 212.091 335.86 211.802 336.054C211.045 336.51 210.165 336.722 209.283 336.661H204.926V328.231H209.051C209.879 328.181 210.702 328.387 211.409 328.82C211.676 328.991 211.893 329.23 212.038 329.513C212.182 329.795 212.249 330.111 212.23 330.428C212.24 330.811 212.141 331.189 211.945 331.517C211.74 331.838 211.457 332.102 211.123 332.285C211.559 332.381 211.953 332.612 212.248 332.946ZM206.89 329.606V331.589H208.819C209.205 331.618 209.591 331.531 209.926 331.339C210.046 331.26 210.142 331.15 210.205 331.021C210.268 330.892 210.295 330.749 210.284 330.606C210.296 330.461 210.27 330.315 210.207 330.183C210.144 330.051 210.047 329.938 209.926 329.856C209.588 329.672 209.204 329.585 208.819 329.606H206.89ZM210.319 334.839C210.448 334.759 210.553 334.645 210.622 334.51C210.691 334.374 210.722 334.223 210.712 334.071C210.712 333.375 210.194 333.018 209.158 333.018H206.89V335.107H209.158C209.558 335.133 209.955 335.04 210.302 334.839H210.319Z" fill="#263238"/>
<path d="M215.856 336.143C215.17 335.787 214.596 335.25 214.195 334.589C213.808 333.909 213.605 333.139 213.605 332.357C213.605 331.574 213.808 330.805 214.195 330.124C214.596 329.464 215.17 328.926 215.856 328.57C216.585 328.194 217.393 327.998 218.213 327.998C219.034 327.998 219.842 328.194 220.571 328.57C221.253 328.931 221.826 329.468 222.232 330.124C222.619 330.805 222.822 331.574 222.822 332.357C222.822 333.139 222.619 333.909 222.232 334.589C221.826 335.246 221.253 335.782 220.571 336.143C219.842 336.519 219.034 336.715 218.213 336.715C217.393 336.715 216.585 336.519 215.856 336.143ZM219.571 334.714C219.966 334.482 220.293 334.149 220.517 333.75C220.74 333.319 220.856 332.841 220.856 332.357C220.856 331.872 220.74 331.394 220.517 330.964C220.293 330.564 219.966 330.231 219.571 329.999C219.156 329.769 218.688 329.652 218.213 329.66C217.744 329.649 217.281 329.766 216.874 329.999C216.475 330.226 216.147 330.56 215.927 330.964C215.705 331.394 215.589 331.872 215.589 332.357C215.589 332.841 215.705 333.319 215.927 333.75C216.147 334.153 216.475 334.487 216.874 334.714C217.285 334.939 217.745 335.055 218.213 335.054C218.687 335.054 219.153 334.937 219.571 334.714Z" fill="#263238"/>
<path d="M224.286 328.142H228.126C228.964 328.129 229.794 328.306 230.555 328.66C231.225 328.991 231.789 329.505 232.18 330.142C232.583 330.809 232.787 331.577 232.769 332.357C232.785 333.136 232.581 333.903 232.18 334.571C231.789 335.204 231.225 335.712 230.555 336.036C229.798 336.402 228.966 336.586 228.126 336.572H224.286V328.142ZM228.019 334.964C228.756 335.002 229.479 334.752 230.037 334.268C230.289 334.02 230.486 333.721 230.615 333.392C230.745 333.063 230.803 332.71 230.787 332.357C230.805 332.003 230.748 331.65 230.619 331.32C230.489 330.99 230.291 330.692 230.037 330.446C229.479 329.961 228.756 329.712 228.019 329.749H226.233V334.964H228.019Z" fill="#263238"/>
<path d="M237.913 333.589V336.572H235.966V333.553L232.698 328.195H234.77L237.02 331.946L239.27 328.195H241.11L237.913 333.589Z" fill="#263238"/>
<path d="M280.152 329.892H356.486C357.05 329.842 357.575 329.582 357.958 329.164C358.341 328.746 358.553 328.2 358.553 327.633C358.553 327.066 358.341 326.52 357.958 326.102C357.575 325.684 357.05 325.424 356.486 325.374H280.152C279.587 325.424 279.062 325.684 278.68 326.102C278.297 326.52 278.085 327.066 278.085 327.633C278.085 328.2 278.297 328.746 278.68 329.164C279.062 329.582 279.587 329.842 280.152 329.892Z" fill="#263238"/>
<path d="M368.398 329.892H428.64C429.205 329.842 429.73 329.582 430.112 329.164C430.495 328.746 430.707 328.2 430.707 327.633C430.707 327.066 430.495 326.52 430.112 326.102C429.73 325.684 429.205 325.424 428.64 325.374H368.398C367.834 325.424 367.308 325.684 366.926 326.102C366.543 326.52 366.331 327.066 366.331 327.633C366.331 328.2 366.543 328.746 366.926 329.164C367.308 329.582 367.834 329.842 368.398 329.892Z" fill="#263238"/>
<path d="M440.874 329.892H493.15C493.715 329.842 494.24 329.582 494.623 329.164C495.005 328.746 495.217 328.2 495.217 327.633C495.217 327.066 495.005 326.52 494.623 326.102C494.24 325.684 493.715 325.424 493.15 325.374H440.874C440.31 325.424 439.784 325.684 439.402 326.102C439.019 326.52 438.807 327.066 438.807 327.633C438.807 328.2 439.019 328.746 439.402 329.164C439.784 329.582 440.31 329.842 440.874 329.892Z" fill="#263238"/>
<path d="M504.795 329.892H557.053C557.618 329.842 558.143 329.582 558.526 329.164C558.908 328.746 559.121 328.2 559.121 327.633C559.121 327.066 558.908 326.52 558.526 326.102C558.143 325.684 557.618 325.424 557.053 325.374H504.795C504.231 325.424 503.705 325.684 503.323 326.102C502.94 326.52 502.728 327.066 502.728 327.633C502.728 328.2 502.94 328.746 503.323 329.164C503.705 329.582 504.231 329.842 504.795 329.892Z" fill="#263238"/>
<path d="M280.152 352.003H335.429C336.025 352.003 336.598 351.766 337.02 351.344C337.442 350.922 337.679 350.349 337.679 349.752C337.679 349.155 337.442 348.583 337.02 348.161C336.598 347.739 336.025 347.502 335.429 347.502H280.152C279.555 347.502 278.983 347.739 278.561 348.161C278.139 348.583 277.902 349.155 277.902 349.752C277.902 350.349 278.139 350.922 278.561 351.344C278.983 351.766 279.555 352.003 280.152 352.003Z" fill="#263238"/>
<path d="M347.341 352.003H409.262C409.859 352.003 410.431 351.766 410.853 351.344C411.275 350.922 411.512 350.349 411.512 349.752C411.512 349.155 411.275 348.583 410.853 348.161C410.431 347.739 409.859 347.502 409.262 347.502H347.341C346.744 347.502 346.172 347.739 345.75 348.161C345.328 348.583 345.091 349.155 345.091 349.752C345.091 350.349 345.328 350.922 345.75 351.344C346.172 351.766 346.744 352.003 347.341 352.003Z" fill="#263238"/>
<path d="M421.496 352.003H472.308C472.905 352.003 473.477 351.766 473.899 351.344C474.321 350.922 474.558 350.349 474.558 349.752C474.558 349.155 474.321 348.583 473.899 348.161C473.477 347.739 472.905 347.502 472.308 347.502H421.496C420.899 347.502 420.327 347.739 419.905 348.161C419.483 348.583 419.246 349.155 419.246 349.752C419.246 350.349 419.483 350.922 419.905 351.344C420.327 351.766 420.899 352.003 421.496 352.003Z" fill="#263238"/>
<path d="M484.006 352.003H557.053C557.65 352.003 558.223 351.766 558.645 351.344C559.067 350.922 559.304 350.349 559.304 349.752C559.304 349.155 559.067 348.583 558.645 348.161C558.223 347.739 557.65 347.502 557.053 347.502H484.006C483.409 347.502 482.837 347.739 482.415 348.161C481.993 348.583 481.756 349.155 481.756 349.752C481.756 350.349 481.993 350.922 482.415 351.344C482.837 351.766 483.409 352.003 484.006 352.003Z" fill="#263238"/>
<path d="M280.152 374.131H350.52C351.085 374.081 351.61 373.821 351.993 373.403C352.375 372.985 352.588 372.439 352.588 371.872C352.588 371.305 352.375 370.759 351.993 370.341C351.61 369.923 351.085 369.663 350.52 369.613H280.152C279.587 369.663 279.062 369.923 278.68 370.341C278.297 370.759 278.085 371.305 278.085 371.872C278.085 372.439 278.297 372.985 278.68 373.403C279.062 373.821 279.587 374.081 280.152 374.131Z" fill="#263238"/>
<path d="M362.433 374.131H428.64C429.205 374.081 429.73 373.821 430.112 373.403C430.495 372.985 430.707 372.439 430.707 371.872C430.707 371.305 430.495 370.759 430.112 370.341C429.73 369.923 429.205 369.663 428.64 369.613H362.379C361.815 369.663 361.29 369.923 360.907 370.341C360.524 370.759 360.312 371.305 360.312 371.872C360.312 372.439 360.524 372.985 360.907 373.403C361.29 373.821 361.815 374.081 362.379 374.131H362.433Z" fill="#263238"/>
<path d="M440.874 374.131H515.886C516.451 374.081 516.976 373.821 517.358 373.403C517.741 372.985 517.953 372.439 517.953 371.872C517.953 371.305 517.741 370.759 517.358 370.341C516.976 369.923 516.451 369.663 515.886 369.613H440.874C440.31 369.663 439.784 369.923 439.402 370.341C439.019 370.759 438.807 371.305 438.807 371.872C438.807 372.439 439.019 372.985 439.402 373.403C439.784 373.821 440.31 374.081 440.874 374.131Z" fill="#263238"/>
<path d="M527.567 374.131H557.053C557.618 374.081 558.143 373.821 558.526 373.403C558.908 372.985 559.121 372.439 559.121 371.872C559.121 371.305 558.908 370.759 558.526 370.341C558.143 369.923 557.618 369.663 557.053 369.613H527.567C527.002 369.663 526.477 369.923 526.094 370.341C525.712 370.759 525.499 371.305 525.499 371.872C525.499 372.439 525.712 372.985 526.094 373.403C526.477 373.821 527.002 374.081 527.567 374.131Z" fill="#263238"/>
<path d="M280.152 396.242H339.09C339.654 396.192 340.18 395.932 340.562 395.514C340.945 395.096 341.157 394.549 341.157 393.983C341.157 393.416 340.945 392.87 340.562 392.452C340.18 392.033 339.654 391.774 339.09 391.723H280.152C279.587 391.774 279.062 392.033 278.68 392.452C278.297 392.87 278.085 393.416 278.085 393.983C278.085 394.549 278.297 395.096 278.68 395.514C279.062 395.932 279.587 396.192 280.152 396.242Z" fill="#263238"/>
<path d="M351.038 396.242H409.262C409.826 396.192 410.352 395.932 410.734 395.514C411.117 395.096 411.329 394.549 411.329 393.983C411.329 393.416 411.117 392.87 410.734 392.452C410.352 392.033 409.826 391.774 409.262 391.723H351.038C350.474 391.774 349.949 392.033 349.566 392.452C349.183 392.87 348.971 393.416 348.971 393.983C348.971 394.549 349.183 395.096 349.566 395.514C349.949 395.932 350.474 396.192 351.038 396.242Z" fill="#263238"/>
<path d="M421.496 396.242H461.235C461.799 396.192 462.324 395.932 462.707 395.514C463.089 395.096 463.302 394.549 463.302 393.983C463.302 393.416 463.089 392.87 462.707 392.452C462.324 392.033 461.799 391.774 461.235 391.723H421.496C420.931 391.774 420.406 392.033 420.024 392.452C419.641 392.87 419.429 393.416 419.429 393.983C419.429 394.549 419.641 395.096 420.024 395.514C420.406 395.932 420.931 396.192 421.496 396.242Z" fill="#263238"/>
<path d="M472.826 396.242H557.053C557.618 396.192 558.143 395.932 558.526 395.514C558.908 395.096 559.121 394.549 559.121 393.983C559.121 393.416 558.908 392.87 558.526 392.452C558.143 392.033 557.618 391.774 557.053 391.723H472.826C472.261 391.774 471.736 392.033 471.353 392.452C470.971 392.87 470.759 393.416 470.759 393.983C470.759 394.549 470.971 395.096 471.353 395.514C471.736 395.932 472.261 396.192 472.826 396.242Z" fill="#263238"/>
<g opacity="0.3">
<path d="M280.152 329.892H356.486C357.05 329.842 357.575 329.582 357.958 329.164C358.341 328.746 358.553 328.2 358.553 327.633C358.553 327.066 358.341 326.52 357.958 326.102C357.575 325.684 357.05 325.424 356.486 325.374H280.152C279.587 325.424 279.062 325.684 278.68 326.102C278.297 326.52 278.085 327.066 278.085 327.633C278.085 328.2 278.297 328.746 278.68 329.164C279.062 329.582 279.587 329.842 280.152 329.892Z" fill="white"/>
<path d="M368.398 329.892H428.64C429.205 329.842 429.73 329.582 430.112 329.164C430.495 328.746 430.707 328.2 430.707 327.633C430.707 327.066 430.495 326.52 430.112 326.102C429.73 325.684 429.205 325.424 428.64 325.374H368.398C367.834 325.424 367.308 325.684 366.926 326.102C366.543 326.52 366.331 327.066 366.331 327.633C366.331 328.2 366.543 328.746 366.926 329.164C367.308 329.582 367.834 329.842 368.398 329.892Z" fill="white"/>
<path d="M440.874 329.892H493.15C493.715 329.842 494.24 329.582 494.623 329.164C495.005 328.746 495.217 328.2 495.217 327.633C495.217 327.066 495.005 326.52 494.623 326.102C494.24 325.684 493.715 325.424 493.15 325.374H440.874C440.31 325.424 439.784 325.684 439.402 326.102C439.019 326.52 438.807 327.066 438.807 327.633C438.807 328.2 439.019 328.746 439.402 329.164C439.784 329.582 440.31 329.842 440.874 329.892Z" fill="white"/>
<path d="M504.795 329.892H557.053C557.618 329.842 558.143 329.582 558.526 329.164C558.908 328.746 559.121 328.2 559.121 327.633C559.121 327.066 558.908 326.52 558.526 326.102C558.143 325.684 557.618 325.424 557.053 325.374H504.795C504.231 325.424 503.705 325.684 503.323 326.102C502.94 326.52 502.728 327.066 502.728 327.633C502.728 328.2 502.94 328.746 503.323 329.164C503.705 329.582 504.231 329.842 504.795 329.892Z" fill="white"/>
<path d="M280.152 352.003H335.429C336.025 352.003 336.598 351.766 337.02 351.344C337.442 350.922 337.679 350.349 337.679 349.753C337.679 349.156 337.442 348.583 337.02 348.161C336.598 347.739 336.025 347.502 335.429 347.502H280.152C279.555 347.502 278.983 347.739 278.561 348.161C278.139 348.583 277.902 349.156 277.902 349.753C277.902 350.349 278.139 350.922 278.561 351.344C278.983 351.766 279.555 352.003 280.152 352.003Z" fill="white"/>
<path d="M347.341 352.003H409.262C409.859 352.003 410.431 351.766 410.853 351.344C411.275 350.922 411.512 350.349 411.512 349.753C411.512 349.156 411.275 348.583 410.853 348.161C410.431 347.739 409.859 347.502 409.262 347.502H347.341C346.744 347.502 346.172 347.739 345.75 348.161C345.328 348.583 345.091 349.156 345.091 349.753C345.091 350.349 345.328 350.922 345.75 351.344C346.172 351.766 346.744 352.003 347.341 352.003Z" fill="white"/>
<path d="M421.496 352.003H472.308C472.905 352.003 473.477 351.766 473.899 351.344C474.321 350.922 474.558 350.349 474.558 349.753C474.558 349.156 474.321 348.583 473.899 348.161C473.477 347.739 472.905 347.502 472.308 347.502H421.496C420.899 347.502 420.327 347.739 419.905 348.161C419.483 348.583 419.246 349.156 419.246 349.753C419.246 350.349 419.483 350.922 419.905 351.344C420.327 351.766 420.899 352.003 421.496 352.003Z" fill="white"/>
<path d="M484.006 352.003H557.053C557.65 352.003 558.223 351.766 558.645 351.344C559.067 350.922 559.304 350.349 559.304 349.753C559.304 349.156 559.067 348.583 558.645 348.161C558.223 347.739 557.65 347.502 557.053 347.502H484.006C483.409 347.502 482.837 347.739 482.415 348.161C481.993 348.583 481.756 349.156 481.756 349.753C481.756 350.349 481.993 350.922 482.415 351.344C482.837 351.766 483.409 352.003 484.006 352.003Z" fill="white"/>
<path d="M280.152 374.131H350.52C351.085 374.081 351.61 373.821 351.993 373.403C352.375 372.985 352.588 372.439 352.588 371.872C352.588 371.305 352.375 370.759 351.993 370.341C351.61 369.923 351.085 369.663 350.52 369.613H280.152C279.587 369.663 279.062 369.923 278.68 370.341C278.297 370.759 278.085 371.305 278.085 371.872C278.085 372.439 278.297 372.985 278.68 373.403C279.062 373.821 279.587 374.081 280.152 374.131Z" fill="white"/>
<path d="M362.433 374.131H428.64C429.205 374.081 429.73 373.821 430.112 373.403C430.495 372.985 430.707 372.439 430.707 371.872C430.707 371.305 430.495 370.759 430.112 370.341C429.73 369.923 429.205 369.663 428.64 369.613H362.379C361.815 369.663 361.29 369.923 360.907 370.341C360.524 370.759 360.312 371.305 360.312 371.872C360.312 372.439 360.524 372.985 360.907 373.403C361.29 373.821 361.815 374.081 362.379 374.131H362.433Z" fill="white"/>
<path d="M440.874 374.131H515.886C516.451 374.081 516.976 373.821 517.358 373.403C517.741 372.985 517.953 372.439 517.953 371.872C517.953 371.305 517.741 370.759 517.358 370.341C516.976 369.923 516.451 369.663 515.886 369.613H440.874C440.31 369.663 439.784 369.923 439.402 370.341C439.019 370.759 438.807 371.305 438.807 371.872C438.807 372.439 439.019 372.985 439.402 373.403C439.784 373.821 440.31 374.081 440.874 374.131Z" fill="white"/>
<path d="M527.567 374.131H557.053C557.618 374.081 558.143 373.821 558.526 373.403C558.908 372.985 559.121 372.439 559.121 371.872C559.121 371.305 558.908 370.759 558.526 370.341C558.143 369.923 557.618 369.663 557.053 369.613H527.567C527.002 369.663 526.477 369.923 526.094 370.341C525.712 370.759 525.499 371.305 525.499 371.872C525.499 372.439 525.712 372.985 526.094 373.403C526.477 373.821 527.002 374.081 527.567 374.131Z" fill="white"/>
<path d="M280.152 396.242H339.09C339.654 396.192 340.18 395.932 340.562 395.514C340.945 395.096 341.157 394.549 341.157 393.983C341.157 393.416 340.945 392.87 340.562 392.452C340.18 392.033 339.654 391.774 339.09 391.723H280.152C279.587 391.774 279.062 392.033 278.68 392.452C278.297 392.87 278.085 393.416 278.085 393.983C278.085 394.549 278.297 395.096 278.68 395.514C279.062 395.932 279.587 396.192 280.152 396.242Z" fill="white"/>
<path d="M351.038 396.242H409.262C409.826 396.192 410.352 395.932 410.734 395.514C411.117 395.096 411.329 394.549 411.329 393.983C411.329 393.416 411.117 392.87 410.734 392.452C410.352 392.033 409.826 391.774 409.262 391.723H351.038C350.474 391.774 349.948 392.033 349.566 392.452C349.183 392.87 348.971 393.416 348.971 393.983C348.971 394.549 349.183 395.096 349.566 395.514C349.948 395.932 350.474 396.192 351.038 396.242Z" fill="white"/>
<path d="M421.496 396.242H461.234C461.799 396.192 462.324 395.932 462.707 395.514C463.089 395.096 463.302 394.549 463.302 393.983C463.302 393.416 463.089 392.87 462.707 392.452C462.324 392.033 461.799 391.774 461.234 391.723H421.496C420.931 391.774 420.406 392.033 420.024 392.452C419.641 392.87 419.429 393.416 419.429 393.983C419.429 394.549 419.641 395.096 420.024 395.514C420.406 395.932 420.931 396.192 421.496 396.242Z" fill="white"/>
<path d="M472.826 396.242H557.053C557.618 396.192 558.143 395.932 558.526 395.514C558.908 395.096 559.121 394.549 559.121 393.983C559.121 393.416 558.908 392.87 558.526 392.452C558.143 392.033 557.618 391.774 557.053 391.723H472.826C472.261 391.774 471.736 392.033 471.353 392.452C470.971 392.87 470.758 393.416 470.758 393.983C470.758 394.549 470.971 395.096 471.353 395.514C471.736 395.932 472.261 396.192 472.826 396.242Z" fill="white"/>
</g>
<path d="M355.95 345.698H265.9C260.771 345.698 256.612 349.856 256.612 354.985V439.034C256.612 444.164 260.771 448.322 265.9 448.322H355.95C361.079 448.322 365.237 444.164 365.237 439.034V354.985C365.237 349.856 361.079 345.698 355.95 345.698Z" fill="#03045E"/>
<path d="M351.931 345.698H261.881C256.752 345.698 252.594 349.856 252.594 354.985V439.034C252.594 444.164 256.752 448.322 261.881 448.322H351.931C357.06 448.322 361.218 444.164 361.218 439.034V354.985C361.218 349.856 357.06 345.698 351.931 345.698Z" fill="#03045E"/>
<path opacity="0.6" d="M351.931 345.698H261.881C256.752 345.698 252.594 349.856 252.594 354.985V439.034C252.594 444.164 256.752 448.322 261.881 448.322H351.931C357.06 448.322 361.218 444.164 361.218 439.034V354.985C361.218 349.856 357.06 345.698 351.931 345.698Z" fill="white"/>
<path d="M269.4 374.131H344.412C344.977 374.081 345.502 373.821 345.885 373.403C346.267 372.985 346.479 372.439 346.479 371.872C346.479 371.305 346.267 370.759 345.885 370.341C345.502 369.923 344.977 369.663 344.412 369.613H269.4C268.836 369.663 268.31 369.923 267.928 370.341C267.545 370.759 267.333 371.305 267.333 371.872C267.333 372.439 267.545 372.985 267.928 373.403C268.31 373.821 268.836 374.081 269.4 374.131Z" fill="#263238"/>
<path d="M269.4 418.942H344.412C345.009 418.942 345.581 418.705 346.003 418.283C346.426 417.861 346.663 417.288 346.663 416.692C346.663 416.095 346.426 415.522 346.003 415.1C345.581 414.678 345.009 414.441 344.412 414.441H269.4C268.803 414.441 268.231 414.678 267.809 415.1C267.387 415.522 267.15 416.095 267.15 416.692C267.15 417.288 267.387 417.861 267.809 418.283C268.231 418.705 268.803 418.942 269.4 418.942Z" fill="#263238"/>
<path d="M269.4 396.242H344.412C344.977 396.192 345.502 395.932 345.885 395.514C346.267 395.096 346.479 394.549 346.479 393.983C346.479 393.416 346.267 392.87 345.885 392.452C345.502 392.033 344.977 391.774 344.412 391.723H269.4C268.836 391.774 268.31 392.033 267.928 392.452C267.545 392.87 267.333 393.416 267.333 393.983C267.333 394.549 267.545 395.096 267.928 395.514C268.31 395.932 268.836 396.192 269.4 396.242Z" fill="#263238"/>
<g opacity="0.1">
<path d="M269.4 381.311H344.412C344.977 381.269 345.502 381.05 345.885 380.699C346.267 380.348 346.479 379.889 346.479 379.413C346.479 378.937 346.267 378.479 345.885 378.128C345.502 377.776 344.977 377.558 344.412 377.516H269.4C268.836 377.558 268.31 377.776 267.928 378.128C267.545 378.479 267.333 378.937 267.333 379.413C267.333 379.889 267.545 380.348 267.928 380.699C268.31 381.05 268.836 381.269 269.4 381.311Z" fill="white"/>
<path d="M269.4 418.942H344.412C345.009 418.942 345.581 418.743 346.003 418.388C346.425 418.034 346.663 417.553 346.663 417.052C346.663 416.551 346.425 416.07 346.003 415.716C345.581 415.361 345.009 415.162 344.412 415.162H269.4C268.803 415.162 268.231 415.361 267.809 415.716C267.387 416.07 267.15 416.551 267.15 417.052C267.15 417.553 267.387 418.034 267.809 418.388C268.231 418.743 268.803 418.942 269.4 418.942Z" fill="white"/>
<path d="M307.952 319.343H382.964C383.561 319.343 384.133 319.144 384.555 318.789C384.977 318.435 385.214 317.954 385.214 317.453C385.214 316.952 384.977 316.471 384.555 316.117C384.133 315.762 383.561 315.563 382.964 315.563H307.952C307.355 315.563 306.783 315.762 306.361 316.117C305.939 316.471 305.702 316.952 305.702 317.453C305.702 317.954 305.939 318.435 306.361 318.789C306.783 319.144 307.355 319.343 307.952 319.343Z" fill="white"/>
<path d="M269.4 399.879H344.412C344.977 399.837 345.502 399.619 345.885 399.267C346.267 398.916 346.479 398.458 346.479 397.982C346.479 397.506 346.267 397.047 345.885 396.696C345.502 396.345 344.977 396.126 344.412 396.084H269.4C268.836 396.126 268.31 396.345 267.928 396.696C267.545 397.047 267.333 397.506 267.333 397.982C267.333 398.458 267.545 398.916 267.928 399.267C268.31 399.619 268.836 399.837 269.4 399.879Z" fill="white"/>
</g>
<path d="M341.912 428.426H330.589C329.188 428.426 328.052 429.561 328.052 430.962V436.927C328.052 438.328 329.188 439.463 330.589 439.463H341.912C343.313 439.463 344.448 438.328 344.448 436.927V430.962C344.448 429.561 343.313 428.426 341.912 428.426Z" fill="#03045E"/>
<path opacity="0.8" d="M320.783 428.426H309.46C308.06 428.426 306.924 429.561 306.924 430.962V436.927C306.924 438.328 308.06 439.463 309.46 439.463H320.783C322.184 439.463 323.32 438.328 323.32 436.927V430.962C323.32 429.561 322.184 428.426 320.783 428.426Z" fill="white"/>
<path d="M275.973 681.341C275.973 681.341 270.383 596.738 282.117 576.646C282.117 576.646 295.172 594.024 290.207 681.341H275.973Z" fill="#03045E"/>
<path d="M290.207 681.341C290.207 681.341 292.904 605.24 330.267 592.952C315.841 620.305 307.701 650.532 306.442 681.43L290.207 681.341Z" fill="#03045E"/>
<path d="M277.223 681.341C277.223 681.341 274.58 605.24 237.163 592.863C251.59 620.216 259.736 650.442 261.006 681.341H277.223Z" fill="#03045E"/>
<g opacity="0.3">
<path d="M275.973 681.341C275.973 681.341 270.383 596.738 282.117 576.646C282.117 576.646 295.172 594.024 290.207 681.341H275.973Z" fill="white"/>
<path d="M290.207 681.341C290.207 681.341 292.904 605.24 330.267 592.952C315.841 620.305 307.701 650.532 306.442 681.43L290.207 681.341Z" fill="white"/>
<path d="M277.223 681.341C277.223 681.341 274.58 605.24 237.163 592.863C251.59 620.216 259.736 650.442 261.006 681.341H277.223Z" fill="white"/>
</g>
<path d="M253.362 684.038C253.362 684.038 244.664 623.082 216.213 606.151C216.213 606.151 265.56 602.078 264.435 684.038H253.362Z" fill="#03045E"/>
<path d="M268.382 682.002C268.382 682.002 278.741 616.295 246.021 585.147C246.021 585.147 292.261 595.309 280.063 684.038L268.382 682.002Z" fill="#03045E"/>
<path d="M313.193 684.038C313.193 684.038 321.891 623.082 350.342 606.151C350.342 606.151 300.995 602.078 302.12 684.038H313.193Z" fill="#03045E"/>
<path d="M298.262 682.002C298.262 682.002 287.903 616.295 320.605 585.147C320.605 585.147 274.383 595.309 286.564 684.038L298.262 682.002Z" fill="#03045E"/>
<g opacity="0.5">
<path d="M253.362 684.038C253.362 684.038 244.664 623.082 216.213 606.15C216.213 606.15 265.56 602.078 264.435 684.038H253.362Z" fill="white"/>
<path d="M268.382 682.002C268.382 682.002 278.741 616.295 246.021 585.147C246.021 585.147 292.261 595.309 280.063 684.038L268.382 682.002Z" fill="white"/>
<path d="M313.193 684.038C313.193 684.038 321.891 623.082 350.342 606.15C350.342 606.15 300.995 602.078 302.12 684.038H313.193Z" fill="white"/>
<path d="M298.262 682.002C298.262 682.002 287.903 616.295 320.605 585.147C320.605 585.147 274.383 595.309 286.564 684.038L298.262 682.002Z" fill="white"/>
</g>
<path d="M314.229 731.046H252.701L240.789 665.535H326.159L314.229 731.046Z" fill="#263238"/>
<path d="M424.836 459.448H402.314C401.957 459.448 401.604 459.526 401.28 459.677C400.957 459.828 400.67 460.049 400.442 460.324C400.213 460.598 400.048 460.92 399.958 461.266C399.868 461.611 399.855 461.973 399.921 462.324V462.52C398.801 462.245 397.628 462.282 396.528 462.628C392.456 463.86 392.349 467.468 393.563 471.558C394.777 475.648 396.867 478.594 400.921 477.38C401.555 477.173 402.156 476.878 402.707 476.505C403.504 478.414 404.815 480.065 406.494 481.273V484.256H420.46V481.273C422.823 479.559 424.434 477.001 424.961 474.129L427.14 462.306C427.198 461.964 427.184 461.613 427.096 461.277C427.009 460.941 426.851 460.627 426.633 460.357C426.415 460.087 426.142 459.866 425.832 459.709C425.522 459.553 425.183 459.464 424.836 459.448ZM400.385 474.772C397.724 475.576 396.349 473.629 395.545 470.95C394.742 468.271 394.831 465.896 397.492 465.11C398.476 464.786 399.548 464.863 400.475 465.324L402.046 473.862C401.571 474.289 401.002 474.601 400.385 474.772Z" fill="#263238"/>
<path opacity="0.7" d="M424.836 459.448H402.314C401.957 459.448 401.604 459.526 401.28 459.677C400.957 459.828 400.67 460.049 400.442 460.324C400.213 460.598 400.048 460.92 399.958 461.266C399.868 461.611 399.855 461.973 399.921 462.324V462.52C398.801 462.245 397.628 462.282 396.528 462.628C392.456 463.86 392.349 467.468 393.563 471.558C394.777 475.648 396.867 478.594 400.921 477.38C401.555 477.173 402.156 476.878 402.707 476.505C403.504 478.414 404.815 480.065 406.494 481.273V484.256H420.46V481.273C422.823 479.559 424.434 477.001 424.961 474.129L427.14 462.306C427.198 461.964 427.184 461.613 427.096 461.277C427.009 460.941 426.851 460.627 426.633 460.357C426.415 460.087 426.142 459.866 425.832 459.709C425.522 459.553 425.183 459.464 424.836 459.448ZM400.385 474.772C397.724 475.576 396.349 473.629 395.545 470.95C394.742 468.271 394.831 465.896 397.492 465.11C398.476 464.786 399.548 464.863 400.475 465.324L402.046 473.862C401.571 474.289 401.002 474.601 400.385 474.772Z" fill="white"/>
<path opacity="0.5" d="M400.385 474.772C397.724 475.576 396.349 473.629 395.545 470.95C394.742 468.271 394.831 465.896 397.492 465.11C398.476 464.786 399.548 464.863 400.475 465.324L402.046 473.862C401.571 474.289 401.002 474.601 400.385 474.772Z" fill="white"/>
<path d="M421.157 487.739H405.994C405.07 487.737 404.161 487.503 403.35 487.06L398.278 484.238C398.07 484.135 397.904 483.964 397.807 483.753C397.71 483.542 397.688 483.305 397.744 483.08C397.8 482.855 397.932 482.656 398.117 482.516C398.301 482.376 398.528 482.303 398.76 482.309H428.497C428.731 482.298 428.961 482.368 429.149 482.507C429.337 482.645 429.472 482.844 429.53 483.071C429.589 483.297 429.568 483.536 429.471 483.749C429.374 483.962 429.207 484.134 428.997 484.238L423.871 487.06C423.039 487.514 422.105 487.748 421.157 487.739Z" fill="#263238"/>
<path opacity="0.6" d="M421.157 487.739H405.994C405.07 487.737 404.161 487.503 403.35 487.06L398.278 484.238C398.07 484.135 397.904 483.964 397.807 483.753C397.71 483.542 397.688 483.305 397.744 483.08C397.8 482.855 397.932 482.656 398.117 482.516C398.301 482.376 398.528 482.303 398.76 482.309H428.497C428.731 482.298 428.961 482.368 429.149 482.507C429.337 482.645 429.472 482.844 429.53 483.071C429.589 483.297 429.568 483.536 429.471 483.749C429.374 483.962 429.207 484.134 428.997 484.238L423.871 487.06C423.039 487.514 422.105 487.748 421.157 487.739Z" fill="white"/>
<path d="M533.693 730.01H525.12L535.121 596.953H546.534L533.693 730.01Z" fill="#407BFF"/>
<path opacity="0.7" d="M533.693 730.01H525.12L535.121 596.953H546.534L533.693 730.01Z" fill="white"/>
<g opacity="0.4">
<path d="M603.972 730.01H595.399L605.4 596.953H616.813L603.972 730.01Z" fill="#407BFF"/>
</g>
<path d="M688.771 730.01H697.326L687.342 596.953H675.912L688.771 730.01Z" fill="#407BFF"/>
<g opacity="0.4">
<path d="M688.771 730.01H697.326L687.342 596.953H675.912L688.771 730.01Z" fill="white"/>
</g>
<path d="M682.073 596.953H541.479V609.383H682.073V596.953Z" fill="#407BFF"/>
<path opacity="0.5" d="M682.073 596.953H541.479V609.383H682.073V596.953Z" fill="white"/>
<path d="M618.492 730.01H627.047L617.063 596.953H605.633L618.492 730.01Z" fill="#407BFF"/>
<path opacity="0.7" d="M618.492 730.01H627.047L617.063 596.953H605.633L618.492 730.01Z" fill="white"/>
<path d="M690.61 441.678H667.303C661.322 441.687 655.466 443.387 650.409 446.582C645.353 449.777 641.303 454.336 638.727 459.734L573.127 596.953H684.038C687.695 596.953 691.223 595.605 693.948 593.167C696.674 590.728 698.404 587.37 698.808 583.736L711.864 465.306C712.194 462.324 711.889 459.305 710.97 456.448C710.051 453.591 708.539 450.961 706.532 448.73C704.525 446.498 702.069 444.717 699.325 443.501C696.581 442.286 693.611 441.665 690.61 441.678Z" fill="#263238"/>
<path opacity="0.4" d="M690.61 441.678H667.303C661.322 441.687 655.466 443.387 650.409 446.582C645.353 449.777 641.303 454.336 638.727 459.734L573.127 596.953H684.038C687.695 596.953 691.223 595.605 693.948 593.167C696.674 590.728 698.404 587.37 698.808 583.736L711.864 465.306C712.194 462.324 711.889 459.305 710.97 456.448C710.051 453.591 708.539 450.961 706.532 448.73C704.525 446.498 702.069 444.717 699.325 443.501C696.581 442.286 693.611 441.665 690.61 441.678Z" fill="white"/>
<path d="M676.394 441.678H653.176C647.196 441.691 641.341 443.393 636.286 446.588C631.23 449.782 627.18 454.339 624.6 459.734L559.018 596.952H667.732C671.984 596.952 676.086 595.382 679.253 592.545C682.42 589.708 684.429 585.802 684.895 581.575L697.719 465.306C698.049 462.318 697.743 459.293 696.82 456.431C695.897 453.569 694.378 450.935 692.363 448.703C690.348 446.47 687.884 444.69 685.131 443.479C682.379 442.268 679.401 441.654 676.394 441.678Z" fill="#263238"/>
<path opacity="0.3" d="M676.394 441.678H653.176C647.196 441.691 641.341 443.393 636.286 446.588C631.23 449.782 627.18 454.339 624.6 459.734L559.018 596.952H667.732C671.984 596.952 676.086 595.382 679.253 592.545C682.42 589.708 684.429 585.802 684.895 581.575L697.719 465.306C698.049 462.318 697.743 459.293 696.82 456.431C695.897 453.569 694.378 450.935 692.363 448.703C690.348 446.47 687.884 444.69 685.131 443.479C682.379 442.268 679.401 441.654 676.394 441.678Z" fill="white"/>
<path d="M629.261 596.953H538.175C536.178 596.953 534.2 596.559 532.355 595.794C530.51 595.029 528.833 593.908 527.422 592.495C526.01 591.081 524.891 589.404 524.128 587.558C523.366 585.712 522.974 583.733 522.977 581.736C522.977 577.705 524.578 573.839 527.428 570.989C530.279 568.138 534.144 566.537 538.175 566.537H629.261V596.953Z" fill="#263238"/>
<path opacity="0.3" d="M629.261 596.953H538.175C536.178 596.953 534.2 596.559 532.355 595.794C530.51 595.029 528.833 593.908 527.422 592.495C526.01 591.081 524.891 589.404 524.128 587.558C523.366 585.712 522.974 583.733 522.977 581.736C522.977 577.705 524.578 573.839 527.428 570.989C530.279 568.138 534.144 566.537 538.175 566.537H629.261V596.953Z" fill="white"/>
<path d="M684.967 596.953H626.029C622.168 596.953 618.466 595.419 615.736 592.689C613.006 589.959 611.473 586.257 611.473 582.397V581.093C611.473 577.232 613.006 573.53 615.736 570.8C618.466 568.071 622.168 566.537 626.029 566.537H684.967C686.964 566.535 688.942 566.926 690.789 567.689C692.635 568.452 694.312 569.571 695.725 570.982C697.139 572.394 698.26 574.07 699.025 575.915C699.79 577.761 700.183 579.738 700.183 581.736C700.186 583.735 699.794 585.715 699.03 587.562C698.266 589.409 697.145 591.088 695.732 592.501C694.318 593.914 692.64 595.035 690.793 595.799C688.945 596.563 686.966 596.955 684.967 596.953Z" fill="#263238"/>
<path opacity="0.4" d="M684.967 596.953H626.029C622.168 596.953 618.466 595.419 615.736 592.689C613.006 589.959 611.473 586.257 611.473 582.397V581.093C611.473 577.232 613.006 573.53 615.736 570.8C618.466 568.071 622.168 566.537 626.029 566.537H684.967C686.964 566.535 688.942 566.926 690.789 567.689C692.635 568.452 694.312 569.571 695.725 570.982C697.139 572.394 698.26 574.07 699.025 575.915C699.79 577.761 700.183 579.738 700.183 581.736C700.186 583.735 699.794 585.715 699.03 587.562C698.266 589.409 697.145 591.088 695.732 592.501C694.318 593.914 692.64 595.035 690.793 595.799C688.945 596.563 686.966 596.955 684.967 596.953Z" fill="white"/>
<path d="M598.721 361.433C598.721 361.433 590.88 386.026 598.721 377.775C598.721 377.775 593.006 405.136 603.579 387.008C603.579 387.008 598.56 411.405 606.793 411.619C615.027 411.834 638.816 410.726 638.816 410.726L645.085 399.814L647.55 393.366C647.55 393.366 659.695 395.152 656.48 383.347C653.438 373.651 649.805 364.149 645.603 354.896L637.548 345.055L603.668 351.36L598.721 361.433Z" fill="#263238"/>
<path opacity="0.6" d="M598.721 361.433C598.721 361.433 590.88 386.026 598.721 377.775C598.721 377.775 593.006 405.136 603.579 387.008C603.579 387.008 598.56 411.405 606.793 411.619C615.027 411.834 638.816 410.726 638.816 410.726L645.085 399.814L647.55 393.366C647.55 393.366 659.695 395.152 656.48 383.347C653.438 373.651 649.805 364.149 645.603 354.896L637.548 345.055L603.668 351.36L598.721 361.433Z" fill="black"/>
<path d="M580.611 428.283C580.611 428.283 581.665 449.018 570.127 458.877C559.643 467.807 543.123 474.826 543.123 474.826L529.085 470.682C528.425 470.482 527.722 470.476 527.06 470.667C526.398 470.857 525.804 471.234 525.352 471.754L518.565 479.487C518.239 479.852 517.991 480.28 517.837 480.744C517.683 481.208 517.626 481.699 517.67 482.187C517.713 482.674 517.856 483.147 518.09 483.577C518.324 484.007 518.644 484.384 519.029 484.685C519.403 484.982 519.833 485.202 520.293 485.331C520.753 485.46 521.234 485.495 521.708 485.435L529.138 484.542C532.084 485.125 535.069 485.489 538.068 485.631C540.385 485.172 542.665 484.545 544.891 483.756C544.891 483.756 570.413 481.559 581.825 470.718C593.238 459.877 597.131 437.391 597.131 437.391L580.611 428.283Z" fill="#EBB376"/>
<path d="M594.738 390.777C585.612 389.402 579.218 412.012 577.628 433.373L599.06 441.053C599.06 441.053 611.759 393.366 594.738 390.777Z" fill="#03045E"/>
<path opacity="0.1" d="M599.007 441.142C599.007 441.142 605.383 417.245 603.061 402.368L589.701 397.403C589.701 397.403 579.968 418.353 584.986 467.307C591.827 458.502 595.292 445.875 596.56 440.249L599.007 441.142Z" fill="black"/>
<path d="M505.313 672.215L506.885 720.633H517.726L522.798 671.339L505.313 672.215Z" fill="#EBB376"/>
<path d="M506.724 715.668H519.083C519.342 715.666 519.594 715.755 519.796 715.917C519.997 716.08 520.137 716.307 520.19 716.561L522.744 728.188C522.802 728.432 522.811 728.685 522.771 728.932C522.73 729.18 522.641 729.417 522.508 729.63C522.375 729.842 522.201 730.027 521.997 730.171C521.792 730.316 521.56 730.419 521.316 730.474C521.179 730.491 521.041 730.491 520.905 730.474C515.761 730.367 511.189 730.081 504.831 730.063C497.276 730.063 499.187 730.956 490.293 731.063C484.935 731.063 483.97 725.027 486.238 724.741C496.651 723.455 499.651 720.294 503.67 716.579C504.55 715.927 505.631 715.605 506.724 715.668Z" fill="#263238"/>
<path opacity="0.1" d="M518.833 710.006L520.047 698.147H506.152L506.545 710.006H518.833Z" fill="#263238"/>
<path d="M632.244 490.203C632.244 490.203 666.017 567.001 633.583 567.001H539.926C539.926 567.001 535.871 587.415 521.28 699.594H505.617C505.617 699.594 498.151 568.216 506.813 548.606C513.6 533.264 561.911 522.28 582.504 518.244C585.202 517.719 587.669 516.362 589.556 514.363C591.443 512.364 592.656 509.823 593.023 507.099L597.596 488.239L632.244 490.203Z" fill="#263238"/>
<path d="M502.634 696.844L503.884 705.363H522.494L524.209 696.844H502.634Z" fill="#263238"/>
<path opacity="0.3" d="M502.634 696.844L503.884 705.363H522.494L524.209 696.844H502.634Z" fill="white"/>
<path opacity="0.4" d="M566.894 553.66L626.118 524.459V508.385L617.188 490.632C617.188 490.632 616.17 508.724 603.668 515.154C591.166 521.583 543.355 524.495 532.067 539.64C523.03 551.767 530.549 591.434 533.853 606.597C538.425 574.645 539.961 566.93 539.961 566.93H553.66L554.821 562.34L566.894 553.66Z" fill="black"/>
<path d="M548.713 672.232L553.035 720.008L563.412 719.99L568.287 671.357L548.713 672.232Z" fill="#EBB376"/>
<path d="M551.999 715.668H564.358C564.619 715.669 564.871 715.758 565.075 715.92C565.28 716.082 565.423 716.307 565.483 716.561L568.037 728.188C568.093 728.433 568.099 728.687 568.056 728.934C568.014 729.182 567.922 729.419 567.788 729.631C567.654 729.843 567.479 730.027 567.273 730.172C567.068 730.316 566.836 730.419 566.591 730.474C566.454 730.492 566.316 730.492 566.18 730.474C561.036 730.367 556.464 730.081 550.106 730.063C542.551 730.063 544.462 730.956 535.568 731.063C530.21 731.063 529.245 725.027 531.514 724.741C541.926 723.455 544.926 720.294 548.945 716.579C549.825 715.927 550.906 715.605 551.999 715.668Z" fill="#263238"/>
<path opacity="0.1" d="M564.412 710.006L565.608 698.147H551.052L552.124 710.006H564.412Z" fill="#263238"/>
<path d="M656.551 491.525C656.551 491.525 659.195 499.205 662.624 509.653C669.982 531.96 673.983 566.93 651.908 566.93H572.949C572.949 566.93 581.575 575.253 566.341 699.523H550.677C550.677 699.523 529.853 564.126 538.497 544.533C545.177 529.442 585.612 522.548 603.847 520.172C606.367 519.843 608.699 518.66 610.453 516.82C612.208 514.981 613.28 512.597 613.491 510.064L615.277 488.167L656.551 491.525Z" fill="#263238"/>
<path d="M547.855 696.844L549.659 705.363H567.716L569.448 696.844H547.855Z" fill="#263238"/>
<path opacity="0.3" d="M547.855 696.844L549.659 705.363H567.716L569.448 696.844H547.855Z" fill="white"/>
<path d="M594.97 496.508C595.018 485.053 594.422 473.604 593.184 462.217C590.88 440.231 586.397 412.977 589.219 397.349C589.584 395.316 590.663 393.48 592.26 392.17C593.858 390.861 595.87 390.164 597.935 390.205H657.569C658.476 390.217 659.37 390.421 660.191 390.805C661.013 391.188 661.744 391.742 662.335 392.43C662.926 393.117 663.364 393.922 663.62 394.792C663.876 395.662 663.945 396.576 663.82 397.474C660.874 414.209 653.39 458.466 659.213 497.829C659.284 497.794 613.545 501.437 594.97 496.508Z" fill="#03045E"/>
<path opacity="0.1" d="M658.355 469.825C658.177 464.342 658.177 458.913 658.355 453.644L648.747 452.769L631.244 470.129L615.991 474.379L608.222 481.631C608.222 481.631 643.799 480.666 653.837 473.558C655.417 472.405 656.925 471.159 658.355 469.825Z" fill="black"/>
<path d="M630.958 359.325C630.029 367.952 632.387 386.312 638.816 391.473C638.816 391.473 636.441 402.707 617.152 404.475C605.4 399.296 609.776 389.741 609.776 389.741C619.028 386.615 619.956 380.989 617.831 374.542L630.958 359.325Z" fill="#EBB376"/>
<path d="M612.366 388.24C612.366 388.24 607.186 401.546 620.367 401.6C635.512 401.6 636.852 388.24 636.852 388.24L640.924 390.169C640.924 390.169 640.245 416.799 617.92 405.618C617.92 405.618 609.312 411.619 608.151 401.6C606.99 391.58 608.972 390.169 608.972 390.169L612.366 388.24Z" fill="#407BFF"/>
<path opacity="0.3" d="M612.366 388.24C612.366 388.24 607.186 401.546 620.367 401.6C635.512 401.6 636.852 388.24 636.852 388.24L640.924 390.169C640.924 390.169 640.245 416.799 617.92 405.618C617.92 405.618 609.312 411.619 608.151 401.6C606.99 391.58 608.972 390.169 608.972 390.169L612.366 388.24Z" fill="#00B4D8"/>
<path opacity="0.1" d="M617.42 384.579C620.849 384.579 627.654 383.079 630.226 372.077C633.798 357.057 617.831 374.578 617.831 374.578C619.063 378.275 619.26 381.722 617.42 384.579Z" fill="black"/>
<path d="M636.53 343.108C637.834 357.307 638.691 363.29 632.691 371.595C623.761 384.097 605.901 382.597 600.453 369.077C595.488 356.896 594.202 335.75 607.097 327.999C609.28 326.676 611.702 325.797 614.226 325.411C616.749 325.025 619.323 325.141 621.802 325.752C624.28 326.362 626.614 327.455 628.669 328.969C630.724 330.482 632.461 332.386 633.78 334.571C635.359 337.16 636.301 340.085 636.53 343.108Z" fill="#EBB376"/>
<path d="M606.651 356.539C606.098 359.326 605.166 362.024 603.882 364.558C604.54 364.862 605.256 365.02 605.981 365.02C606.706 365.02 607.422 364.862 608.079 364.558L606.651 356.539Z" fill="#D58745"/>
<path d="M615.473 347.591C615.565 347.553 615.645 347.491 615.706 347.413C615.752 347.355 615.787 347.29 615.807 347.219C615.828 347.148 615.834 347.074 615.826 347.001C615.818 346.928 615.795 346.857 615.759 346.793C615.723 346.728 615.674 346.672 615.616 346.627C614.793 345.96 613.821 345.501 612.782 345.289C611.744 345.078 610.67 345.12 609.651 345.412C609.53 345.475 609.435 345.578 609.383 345.705C609.332 345.831 609.327 345.972 609.371 346.101C609.414 346.231 609.502 346.34 609.619 346.41C609.736 346.481 609.874 346.507 610.008 346.484C610.854 346.254 611.743 346.23 612.601 346.413C613.458 346.596 614.259 346.982 614.938 347.538C615.017 347.587 615.106 347.618 615.199 347.627C615.292 347.636 615.386 347.624 615.473 347.591Z" fill="#2E353A"/>
<path d="M595.774 350.592C595.673 350.575 595.575 350.539 595.488 350.485C595.368 350.401 595.285 350.274 595.258 350.13C595.231 349.986 595.263 349.837 595.345 349.717C595.928 348.818 596.72 348.074 597.653 347.548C598.586 347.023 599.633 346.731 600.703 346.698C600.852 346.703 600.993 346.765 601.096 346.872C601.199 346.979 601.257 347.121 601.257 347.27C601.257 347.417 601.199 347.557 601.095 347.661C600.991 347.765 600.85 347.823 600.703 347.823C599.829 347.875 598.979 348.132 598.222 348.572C597.465 349.013 596.822 349.625 596.345 350.36C596.278 350.444 596.19 350.51 596.09 350.551C595.99 350.592 595.881 350.606 595.774 350.592Z" fill="#2E353A"/>
<path d="M614.384 353.217C614.598 354.342 614.152 355.378 613.402 355.521C612.652 355.664 611.901 354.842 611.705 353.735C611.509 352.628 611.937 351.574 612.669 351.449C613.402 351.324 614.152 352.056 614.384 353.217Z" fill="#2E353A"/>
<path d="M601.471 355.521C601.668 356.664 601.239 357.682 600.489 357.825C599.739 357.968 598.989 357.146 598.703 356.039C598.417 354.932 598.935 353.878 599.667 353.735C600.4 353.592 601.275 354.378 601.471 355.521Z" fill="#2E353A"/>
<path d="M600.096 353.628L597.221 353.342C597.221 353.342 599.007 355.289 600.096 353.628Z" fill="#2E353A"/>
<path d="M612.973 351.395L610.098 351.092C610.098 351.092 611.884 352.985 612.973 351.395Z" fill="#2E353A"/>
<path d="M626.172 336.822C626.172 336.822 595.81 350.592 605.133 336.822C605.133 336.822 587.648 348.609 592.541 339.376C597.435 330.142 601.471 329.231 601.471 329.231C601.471 329.231 596.863 330.803 597.256 327.249C597.649 323.695 607.544 318.319 615.849 321.23C615.849 321.23 613.259 317.229 616.027 315.658C618.795 314.086 624.35 322.337 624.35 322.337C624.35 322.337 637.423 319.444 638.799 322.569C640.174 325.695 635.905 325.231 635.905 325.231C635.905 325.231 650.408 329.91 649.3 333.482C648.193 337.054 645.639 334.803 645.639 334.803C645.639 334.803 657.569 348.859 655.105 353.753C652.64 358.647 648.193 352.896 648.193 352.896C648.193 352.896 660.248 371.202 655.105 375.274C649.961 379.346 645.514 368.13 645.514 368.13C645.514 368.13 652.462 385.508 647.532 386.83C642.603 388.151 640.906 375.203 640.906 375.203C640.906 375.203 642.692 385.74 638.799 385.722C634.905 385.704 633.244 352.735 633.244 352.735C633.244 352.735 629.529 365.755 626.172 336.822Z" fill="#263238"/>
<path d="M641.567 353.717C641.207 356.444 639.781 358.916 637.602 360.593C634.655 362.772 631.887 360.468 631.619 357.021C631.369 353.932 632.583 349.056 636.066 348.234C637.287 347.991 638.555 348.239 639.595 348.924C640.635 349.61 641.363 350.677 641.62 351.896C641.726 352.5 641.707 353.12 641.567 353.717Z" fill="#EBB376"/>
<path d="M612.009 370.381C611.599 370.503 611.181 370.599 610.758 370.666C610.726 370.671 610.692 370.67 610.66 370.662C610.627 370.654 610.597 370.639 610.57 370.619C610.544 370.599 610.522 370.574 610.505 370.546C610.488 370.517 610.477 370.485 610.473 370.452C610.468 370.419 610.469 370.386 610.477 370.353C610.485 370.321 610.5 370.291 610.52 370.264C610.54 370.238 610.565 370.215 610.593 370.198C610.622 370.182 610.654 370.171 610.687 370.166C611.765 370.017 612.792 369.615 613.685 368.995C614.579 368.374 615.314 367.552 615.831 366.594C615.844 366.563 615.864 366.535 615.888 366.512C615.913 366.489 615.942 366.471 615.974 366.459C616.005 366.448 616.039 366.442 616.073 366.444C616.107 366.446 616.14 366.454 616.17 366.469C616.201 366.483 616.229 366.502 616.252 366.527C616.275 366.552 616.293 366.581 616.305 366.612C616.317 366.644 616.322 366.678 616.32 366.711C616.318 366.745 616.31 366.778 616.295 366.809C615.857 367.661 615.251 368.417 614.515 369.03C613.779 369.644 612.926 370.103 612.009 370.381Z" fill="#263238"/>
<path opacity="0.1" d="M651.336 406.208C651.336 406.208 646.532 430.426 642.96 437.034L653.676 438.374L658.266 408.351L651.336 406.208Z" fill="black"/>
<path d="M650.586 422.585C650.586 422.585 653.265 447.161 640.906 454.733C628.547 462.306 601.882 472.933 601.882 472.933L585.808 469.504C585.392 469.416 584.959 469.454 584.565 469.613C584.17 469.772 583.832 470.045 583.593 470.397L576.574 480.863C576.323 481.235 576.196 481.678 576.212 482.127C576.228 482.577 576.386 483.009 576.664 483.363C576.887 483.645 577.177 483.866 577.508 484.007C577.838 484.147 578.199 484.202 578.557 484.167L588.398 483.149C590.61 483.701 592.861 484.083 595.131 484.292C598.011 483.849 600.853 483.186 603.632 482.309C603.632 482.309 641.138 478.737 653.212 467.271C665.285 455.805 667.964 432.212 667.964 432.212L650.586 422.585Z" fill="#EBB376"/>
<path d="M659.731 390.687C648.211 389.312 649.925 415.227 647.55 433.373L668.982 438.374C668.982 438.374 676.894 392.741 659.731 390.687Z" fill="#03045E"/>
<path d="M521.959 487.578C521.339 487.525 520.761 487.242 520.341 486.784C519.92 486.326 519.686 485.726 519.686 485.104C519.686 484.482 519.92 483.883 520.341 483.425C520.761 482.967 521.339 482.684 521.959 482.631H589.166C589.508 482.602 589.853 482.644 590.178 482.755C590.504 482.866 590.802 483.044 591.055 483.276C591.309 483.509 591.511 483.791 591.649 484.106C591.787 484.421 591.859 484.761 591.859 485.104C591.859 485.448 591.787 485.788 591.649 486.103C591.511 486.418 591.309 486.7 591.055 486.933C590.802 487.165 590.504 487.343 590.178 487.454C589.853 487.565 589.508 487.607 589.166 487.578H521.959Z" fill="#263238"/>
<path d="M527.656 483.327L518.726 419.656C518.543 418.494 517.958 417.433 517.074 416.656C516.19 415.88 515.062 415.437 513.886 415.406H505.313V487.578H524.012C524.55 487.599 525.086 487.497 525.579 487.282C526.073 487.066 526.511 486.742 526.861 486.333C527.212 485.924 527.465 485.442 527.603 484.921C527.74 484.401 527.759 483.856 527.656 483.327Z" fill="#263238"/>
<g opacity="0.1">
<path d="M521.958 487.578C521.339 487.525 520.761 487.242 520.341 486.784C519.92 486.326 519.686 485.726 519.686 485.104C519.686 484.482 519.92 483.883 520.341 483.425C520.761 482.967 521.339 482.683 521.958 482.631H589.166C589.508 482.602 589.853 482.644 590.178 482.755C590.504 482.866 590.802 483.043 591.055 483.276C591.309 483.509 591.511 483.791 591.649 484.106C591.787 484.421 591.859 484.761 591.859 485.104C591.859 485.448 591.787 485.788 591.649 486.103C591.511 486.418 591.309 486.7 591.055 486.933C590.802 487.165 590.504 487.343 590.178 487.454C589.853 487.565 589.508 487.607 589.166 487.578H521.958Z" fill="white"/>
<path d="M527.656 483.327L518.726 419.656C518.543 418.494 517.958 417.433 517.074 416.656C516.19 415.88 515.062 415.437 513.886 415.406H505.313V487.578H524.012C524.55 487.599 525.086 487.497 525.579 487.282C526.073 487.066 526.511 486.742 526.861 486.333C527.212 485.924 527.465 485.442 527.603 484.921C527.74 484.401 527.759 483.856 527.656 483.327Z" fill="white"/>
</g>
<path d="M520.315 487.578H444.321C443.146 487.551 442.019 487.112 441.134 486.339C440.25 485.565 439.665 484.506 439.481 483.345L430.551 419.674C430.45 419.152 430.467 418.613 430.6 418.098C430.734 417.583 430.981 417.104 431.323 416.697C431.666 416.29 432.095 415.964 432.579 415.744C433.063 415.523 433.591 415.414 434.123 415.424H510.117C511.293 415.459 512.419 415.902 513.302 416.678C514.186 417.454 514.771 418.513 514.957 419.674L523.887 483.345C523.986 483.866 523.966 484.403 523.831 484.916C523.697 485.429 523.449 485.905 523.107 486.31C522.765 486.716 522.337 487.04 521.854 487.259C521.371 487.478 520.846 487.587 520.315 487.578Z" fill="#263238"/>
<path opacity="0.7" d="M520.315 487.578H444.321C443.146 487.551 442.019 487.112 441.134 486.339C440.25 485.565 439.665 484.506 439.481 483.345L430.551 419.674C430.45 419.152 430.467 418.613 430.6 418.098C430.734 417.583 430.981 417.104 431.323 416.697C431.666 416.29 432.095 415.964 432.579 415.744C433.063 415.523 433.591 415.414 434.123 415.424H510.117C511.293 415.459 512.419 415.902 513.302 416.678C514.186 417.454 514.771 418.513 514.957 419.674L523.887 483.345C523.986 483.866 523.966 484.403 523.831 484.916C523.697 485.429 523.449 485.905 523.107 486.31C522.765 486.716 522.337 487.04 521.854 487.259C521.371 487.478 520.846 487.587 520.315 487.578Z" fill="white"/>
<path opacity="0.7" d="M480.952 449.751C481.04 450.232 481.019 450.727 480.892 451.199C480.764 451.671 480.533 452.109 480.214 452.48C479.896 452.851 479.499 453.147 479.052 453.345C478.605 453.544 478.119 453.64 477.63 453.626C476.557 453.595 475.528 453.191 474.719 452.484C473.911 451.777 473.374 450.81 473.201 449.751C473.112 449.268 473.133 448.772 473.262 448.298C473.391 447.825 473.624 447.386 473.944 447.014C474.264 446.643 474.664 446.347 475.113 446.15C475.562 445.953 476.05 445.859 476.541 445.875C477.613 445.904 478.641 446.307 479.447 447.015C480.253 447.723 480.785 448.691 480.952 449.751Z" fill="white"/>
<path d="M332.232 732.028H323.57L319.783 502.955H336.018L332.232 732.028Z" fill="#407BFF"/>
<path opacity="0.7" d="M332.232 732.028H323.57L319.783 502.955H336.018L332.232 732.028Z" fill="white"/>
<path d="M427.765 732.028H419.103L415.316 502.955H431.551L427.765 732.028Z" fill="#407BFF"/>
<path opacity="0.4" d="M427.765 732.028H419.103L415.316 502.955H431.551L427.765 732.028Z" fill="white"/>
<path d="M491.221 499.116H327.892V517.029H491.221V499.116Z" fill="#407BFF"/>
<path opacity="0.3" d="M491.221 499.116H327.892V517.029H491.221V499.116Z" fill="white"/>
<path d="M587.022 499.116H491.239V517.029H587.022V499.116Z" fill="#407BFF"/>
<path opacity="0.5" d="M587.022 499.116H491.239V517.029H587.022V499.116Z" fill="white"/>
<path d="M591.095 732.028H582.45L578.646 502.955H594.899L591.095 732.028Z" fill="#407BFF"/>
<path opacity="0.4" d="M591.095 732.028H582.45L578.646 502.955H594.899L591.095 732.028Z" fill="white"/>
<path d="M600.06 487.596H472.415C469.801 487.596 467.682 489.715 467.682 492.329V498.223C467.682 500.837 469.801 502.956 472.415 502.956H600.06C602.674 502.956 604.793 500.837 604.793 498.223V492.329C604.793 489.715 602.674 487.596 600.06 487.596Z" fill="#263238"/>
<path opacity="0.4" d="M600.06 487.596H472.415C469.801 487.596 467.682 489.715 467.682 492.329V498.223C467.682 500.837 469.801 502.956 472.415 502.956H600.06C602.674 502.956 604.793 500.837 604.793 498.223V492.329C604.793 489.715 602.674 487.596 600.06 487.596Z" fill="white"/>
<path d="M484.292 487.596H311.05C308.436 487.596 306.317 489.715 306.317 492.329V498.223C306.317 500.837 308.436 502.956 311.05 502.956H484.292C486.906 502.956 489.025 500.837 489.025 498.223V492.329C489.025 489.715 486.906 487.596 484.292 487.596Z" fill="#263238"/>
<path opacity="0.3" d="M484.292 487.596H311.05C308.436 487.596 306.317 489.715 306.317 492.329V498.223C306.317 500.837 308.436 502.956 311.05 502.956H484.292C486.906 502.956 489.025 500.837 489.025 498.223V492.329C489.025 489.715 486.906 487.596 484.292 487.596Z" fill="white"/>
<path d="M495.561 732.028H486.899L483.113 502.955H499.348L495.561 732.028Z" fill="#407BFF"/>
<path opacity="0.7" d="M495.561 732.028H486.899L483.113 502.955H499.348L495.561 732.028Z" fill="white"/>
<path d="M211.424 210.941C211.424 210.814 211.405 210.7 211.366 210.599C211.33 210.495 211.262 210.401 211.161 210.316C211.06 210.228 210.918 210.142 210.736 210.057C210.554 209.972 210.318 209.885 210.028 209.793C209.706 209.689 209.4 209.572 209.11 209.442C208.823 209.312 208.569 209.16 208.348 208.988C208.13 208.812 207.957 208.609 207.831 208.377C207.707 208.146 207.645 207.878 207.645 207.572C207.645 207.276 207.71 207.007 207.84 206.766C207.971 206.522 208.153 206.314 208.387 206.141C208.622 205.965 208.898 205.83 209.217 205.736C209.54 205.641 209.893 205.594 210.277 205.594C210.801 205.594 211.258 205.689 211.649 205.877C212.04 206.066 212.342 206.325 212.557 206.654C212.775 206.983 212.884 207.359 212.884 207.782H211.429C211.429 207.573 211.385 207.391 211.297 207.235C211.213 207.075 211.082 206.95 210.907 206.859C210.734 206.768 210.516 206.722 210.252 206.722C209.999 206.722 209.787 206.761 209.618 206.839C209.448 206.914 209.321 207.017 209.237 207.147C209.152 207.274 209.11 207.417 209.11 207.577C209.11 207.697 209.139 207.806 209.198 207.904C209.26 208.001 209.351 208.093 209.471 208.177C209.592 208.262 209.74 208.342 209.915 208.417C210.091 208.491 210.295 208.565 210.526 208.636C210.913 208.753 211.253 208.885 211.546 209.032C211.843 209.178 212.09 209.343 212.289 209.525C212.487 209.707 212.637 209.914 212.738 210.145C212.839 210.376 212.889 210.638 212.889 210.931C212.889 211.24 212.829 211.517 212.708 211.761C212.588 212.005 212.414 212.212 212.186 212.381C211.958 212.551 211.686 212.679 211.371 212.767C211.055 212.855 210.702 212.899 210.311 212.899C209.959 212.899 209.613 212.853 209.271 212.762C208.929 212.668 208.618 212.526 208.338 212.337C208.062 212.149 207.84 211.908 207.674 211.615C207.508 211.322 207.425 210.975 207.425 210.575H208.895C208.895 210.796 208.929 210.983 208.998 211.136C209.066 211.289 209.162 211.413 209.286 211.507C209.413 211.602 209.562 211.67 209.735 211.712C209.911 211.755 210.103 211.776 210.311 211.776C210.565 211.776 210.773 211.74 210.936 211.668C211.102 211.597 211.224 211.498 211.302 211.371C211.384 211.244 211.424 211.1 211.424 210.941ZM217.811 205.692H219.271V210.389C219.271 210.936 219.154 211.397 218.919 211.771C218.688 212.145 218.368 212.427 217.957 212.616C217.551 212.805 217.082 212.899 216.551 212.899C216.021 212.899 215.549 212.805 215.135 212.616C214.725 212.427 214.403 212.145 214.168 211.771C213.937 211.397 213.822 210.936 213.822 210.389V205.692H215.287V210.389C215.287 210.708 215.337 210.969 215.438 211.17C215.539 211.372 215.684 211.52 215.873 211.615C216.065 211.709 216.291 211.756 216.551 211.756C216.818 211.756 217.044 211.709 217.23 211.615C217.419 211.52 217.562 211.372 217.66 211.17C217.761 210.969 217.811 210.708 217.811 210.389V205.692ZM220.477 205.692H223.128C223.672 205.692 224.139 205.773 224.53 205.936C224.924 206.099 225.226 206.34 225.438 206.659C225.65 206.978 225.755 207.37 225.755 207.835C225.755 208.216 225.69 208.543 225.56 208.817C225.433 209.087 225.252 209.313 225.018 209.496C224.787 209.675 224.515 209.818 224.203 209.925L223.739 210.169H221.434L221.424 209.027H223.138C223.395 209.027 223.609 208.981 223.778 208.89C223.947 208.799 224.074 208.672 224.159 208.509C224.247 208.347 224.29 208.158 224.29 207.943C224.29 207.715 224.248 207.518 224.164 207.352C224.079 207.186 223.95 207.059 223.778 206.971C223.605 206.883 223.389 206.839 223.128 206.839H221.942V212.801H220.477V205.692ZM224.452 212.801L222.831 209.632L224.378 209.623L226.019 212.733V212.801H224.452ZM232.669 205.692V212.801H231.205L228.348 208.036V212.801H226.883V205.692H228.348L231.209 210.462V205.692H232.669ZM236.922 206.908L234.989 212.801H233.431L236.073 205.692H237.064L236.922 206.908ZM238.529 212.801L236.59 206.908L236.434 205.692H237.435L240.091 212.801H238.529ZM238.441 210.155V211.302H234.686V210.155H238.441ZM241.419 205.692H242.66L244.486 210.912L246.312 205.692H247.552L244.984 212.801H243.988L241.419 205.692ZM240.75 205.692H241.986L242.21 210.78V212.801H240.75V205.692ZM246.986 205.692H248.226V212.801H246.761V210.78L246.986 205.692ZM254.281 211.659V212.801H250.497V211.659H254.281ZM250.975 205.692V212.801H249.51V205.692H250.975ZM253.788 208.587V209.701H250.497V208.587H253.788ZM254.276 205.692V206.839H250.497V205.692H254.276Z" fill="black"/>
<path d="M213.616 254.769C213.616 254.642 213.596 254.528 213.557 254.427C213.521 254.323 213.453 254.229 213.352 254.144C213.251 254.056 213.11 253.97 212.927 253.885C212.745 253.801 212.509 253.713 212.219 253.622C211.897 253.517 211.591 253.4 211.301 253.27C211.015 253.14 210.761 252.988 210.54 252.816C210.321 252.64 210.149 252.437 210.022 252.206C209.898 251.974 209.836 251.706 209.836 251.4C209.836 251.104 209.901 250.835 210.032 250.594C210.162 250.35 210.344 250.142 210.579 249.969C210.813 249.793 211.09 249.658 211.409 249.564C211.731 249.47 212.084 249.422 212.468 249.422C212.992 249.422 213.45 249.517 213.84 249.706C214.231 249.894 214.534 250.153 214.749 250.482C214.967 250.811 215.076 251.187 215.076 251.61H213.621C213.621 251.402 213.577 251.219 213.489 251.063C213.404 250.903 213.274 250.778 213.098 250.687C212.926 250.596 212.707 250.55 212.444 250.55C212.19 250.55 211.978 250.589 211.809 250.667C211.64 250.742 211.513 250.845 211.428 250.975C211.344 251.102 211.301 251.245 211.301 251.405C211.301 251.525 211.331 251.634 211.389 251.732C211.451 251.83 211.542 251.921 211.663 252.005C211.783 252.09 211.931 252.17 212.107 252.245C212.283 252.319 212.486 252.393 212.717 252.464C213.105 252.582 213.445 252.713 213.738 252.86C214.034 253.006 214.281 253.171 214.48 253.353C214.679 253.535 214.828 253.742 214.929 253.973C215.03 254.204 215.081 254.466 215.081 254.759C215.081 255.069 215.02 255.345 214.9 255.589C214.779 255.833 214.605 256.04 214.377 256.209C214.15 256.379 213.878 256.507 213.562 256.595C213.246 256.683 212.893 256.727 212.502 256.727C212.151 256.727 211.804 256.681 211.462 256.59C211.121 256.496 210.81 256.354 210.53 256.166C210.253 255.977 210.032 255.736 209.866 255.443C209.7 255.15 209.617 254.803 209.617 254.403H211.086C211.086 254.624 211.121 254.811 211.189 254.964C211.257 255.117 211.353 255.241 211.477 255.335C211.604 255.43 211.754 255.498 211.926 255.541C212.102 255.583 212.294 255.604 212.502 255.604C212.756 255.604 212.965 255.568 213.127 255.497C213.293 255.425 213.415 255.326 213.494 255.199C213.575 255.072 213.616 254.929 213.616 254.769ZM220.002 249.52H221.462V254.217C221.462 254.764 221.345 255.225 221.111 255.599C220.88 255.973 220.559 256.255 220.149 256.444C219.742 256.633 219.273 256.727 218.743 256.727C218.212 256.727 217.74 256.633 217.327 256.444C216.916 256.255 216.594 255.973 216.36 255.599C216.129 255.225 216.013 254.764 216.013 254.217V249.52H217.478V254.217C217.478 254.536 217.528 254.797 217.629 254.999C217.73 255.2 217.875 255.348 218.064 255.443C218.256 255.537 218.482 255.584 218.743 255.584C219.01 255.584 219.236 255.537 219.421 255.443C219.61 255.348 219.753 255.2 219.851 254.999C219.952 254.797 220.002 254.536 220.002 254.217V249.52ZM225.452 253.509H223.625L223.616 252.503H225.149C225.419 252.503 225.64 252.469 225.813 252.401C225.985 252.329 226.114 252.227 226.199 252.093C226.287 251.957 226.331 251.791 226.331 251.595C226.331 251.374 226.288 251.195 226.204 251.058C226.122 250.921 225.994 250.822 225.818 250.76C225.645 250.698 225.422 250.667 225.149 250.667H224.133V256.629H222.668V249.52H225.149C225.562 249.52 225.932 249.559 226.257 249.637C226.586 249.715 226.864 249.834 227.092 249.994C227.32 250.153 227.494 250.355 227.615 250.599C227.735 250.84 227.795 251.126 227.795 251.458C227.795 251.751 227.729 252.022 227.595 252.269C227.465 252.516 227.258 252.718 226.975 252.875C226.695 253.031 226.329 253.117 225.876 253.133L225.452 253.509ZM225.388 256.629H223.225L223.796 255.487H225.388C225.645 255.487 225.855 255.446 226.018 255.365C226.181 255.28 226.301 255.166 226.379 255.023C226.457 254.88 226.497 254.715 226.497 254.53C226.497 254.321 226.461 254.141 226.389 253.988C226.321 253.835 226.21 253.718 226.057 253.636C225.904 253.552 225.702 253.509 225.452 253.509H224.04L224.05 252.503H225.808L226.145 252.899C226.578 252.892 226.926 252.969 227.19 253.128C227.457 253.285 227.651 253.488 227.771 253.739C227.895 253.989 227.957 254.258 227.957 254.544C227.957 255 227.857 255.384 227.659 255.697C227.46 256.006 227.169 256.239 226.785 256.395C226.404 256.551 225.938 256.629 225.388 256.629ZM231.931 254.447V249.52H233.391V254.447C233.391 254.922 233.287 255.331 233.079 255.672C232.87 256.011 232.585 256.271 232.224 256.454C231.866 256.636 231.462 256.727 231.013 256.727C230.548 256.727 230.136 256.649 229.778 256.493C229.42 256.336 229.138 256.097 228.933 255.775C228.728 255.449 228.625 255.038 228.625 254.54H230.095C230.095 254.8 230.131 255.007 230.203 255.16C230.277 255.313 230.383 255.422 230.52 255.487C230.657 255.552 230.821 255.584 231.013 255.584C231.199 255.584 231.36 255.541 231.497 255.453C231.633 255.365 231.739 255.236 231.814 255.067C231.892 254.898 231.931 254.691 231.931 254.447ZM239.412 255.487V256.629H235.627V255.487H239.412ZM236.106 249.52V256.629H234.641V249.52H236.106ZM238.918 252.416V253.529H235.627V252.416H238.918ZM239.407 249.52V250.667H235.627V249.52H239.407ZM244.387 254.271H245.847C245.818 254.75 245.686 255.174 245.452 255.545C245.221 255.917 244.897 256.206 244.48 256.415C244.067 256.623 243.568 256.727 242.986 256.727C242.53 256.727 242.122 256.649 241.76 256.493C241.399 256.333 241.09 256.105 240.832 255.809C240.579 255.513 240.385 255.155 240.251 254.735C240.118 254.315 240.051 253.845 240.051 253.324V252.831C240.051 252.31 240.12 251.839 240.256 251.419C240.396 250.996 240.595 250.637 240.852 250.34C241.112 250.044 241.423 249.816 241.785 249.657C242.146 249.497 242.55 249.417 242.996 249.417C243.588 249.417 244.088 249.525 244.495 249.74C244.905 249.955 245.222 250.251 245.447 250.628C245.675 251.006 245.811 251.436 245.857 251.917H244.392C244.376 251.631 244.319 251.389 244.221 251.19C244.124 250.988 243.975 250.837 243.777 250.736C243.582 250.632 243.321 250.58 242.996 250.58C242.751 250.58 242.538 250.625 242.356 250.716C242.174 250.807 242.021 250.946 241.897 251.131C241.773 251.317 241.68 251.551 241.619 251.834C241.56 252.114 241.531 252.443 241.531 252.821V253.324C241.531 253.692 241.558 254.015 241.614 254.295C241.669 254.572 241.754 254.806 241.868 254.999C241.985 255.187 242.135 255.331 242.317 255.428C242.502 255.523 242.725 255.57 242.986 255.57C243.292 255.57 243.544 255.521 243.743 255.423C243.941 255.326 244.093 255.181 244.197 254.989C244.304 254.797 244.368 254.557 244.387 254.271ZM249.841 249.52V256.629H248.381V249.52H249.841ZM252.029 249.52V250.667H246.228V249.52H252.029Z" fill="black"/>
<line x1="285.979" y1="298.628" x2="364.87" y2="298.628" stroke="black"/>
<line x1="285.979" y1="251.512" x2="364.87" y2="251.512" stroke="black"/>
<line x1="384.593" y1="251.512" x2="463.483" y2="251.512" stroke="black"/>
<line x1="484.302" y1="251.512" x2="563.193" y2="251.512" stroke="black"/>
<line x1="285.979" y1="208.78" x2="364.87" y2="208.78" stroke="black"/>
<line x1="384.593" y1="208.78" x2="463.483" y2="208.78" stroke="black"/>
<line x1="483.206" y1="208.78" x2="562.097" y2="208.78" stroke="black"/>
<line x1="395.55" y1="298.628" x2="474.44" y2="298.628" stroke="black"/>
<line x1="505.12" y1="298.628" x2="551.14" y2="298.628" stroke="black"/>
<circle cx="396.098" cy="156.138" r="15.8877" fill="#FF9E00"/>
</svg>
