<svg width="79" height="79" viewBox="0 0 79 79" fill="none" xmlns="http://www.w3.org/2000/svg">
<g clip-path="url(#clip0_1_950)">
<path d="M75.0147 28.9544H69.6373C69.2609 27.8909 68.8276 26.8467 68.3391 25.8268L72.1432 22.0227C73.5317 20.6343 73.5317 18.3833 72.1435 16.9949L62.0879 6.93906C61.4211 6.27233 60.5167 5.89761 59.5738 5.89761C58.631 5.89761 57.7268 6.2721 57.0601 6.93906L53.2557 10.7431C52.2356 10.2547 51.1918 9.82163 50.1281 9.44525V4.06786C50.1281 2.10443 48.5363 0.512634 46.5729 0.512634H32.352C30.3885 0.512634 28.7967 2.10443 28.7967 4.06786V9.44525C27.733 9.82163 26.689 10.2549 25.6693 10.7431L21.865 6.93906C20.4768 5.55062 18.2256 5.55062 16.8372 6.93906L6.78137 16.9949C5.39294 18.3833 5.39294 20.6343 6.78137 22.0227L10.5855 25.827C10.0972 26.8469 9.66419 27.8907 9.28781 28.9544H3.91017C1.94674 28.9544 0.35495 30.5462 0.35495 32.5097V46.7305C0.35495 48.694 1.94674 50.2858 3.91017 50.2858H9.28781C9.66419 51.3493 10.0975 52.3936 10.5855 53.4132L6.78137 57.2175C6.11465 57.8842 5.73993 58.7884 5.73993 59.7313C5.73993 60.6744 6.11441 61.5786 6.78137 62.2453L16.8374 72.3009C18.2259 73.6891 20.4768 73.6891 21.865 72.3009L25.6696 68.4971C26.6897 68.9853 27.7333 69.4186 28.7967 69.795V75.1723C28.7967 77.1358 30.3885 78.7276 32.352 78.7276H46.5729C48.5363 78.7276 50.1281 77.1358 50.1281 75.1723V69.7947C51.1918 69.4183 52.2359 68.9853 53.2557 68.4968L57.0603 72.3009C58.4485 73.6891 60.6994 73.6893 62.0879 72.3007L72.1435 62.2451C73.5319 60.8566 73.5319 58.6057 72.1435 57.2173L68.3394 53.4132C68.8279 52.3933 69.2611 51.3493 69.6375 50.2855H75.0147C76.9781 50.2855 78.5699 48.6937 78.5699 46.7303V32.5094C78.5699 30.5462 76.9781 28.9544 75.0147 28.9544ZM71.4594 43.1753H67.0081C65.3855 43.1753 63.969 44.2737 63.5649 45.8451C62.9878 48.0894 62.0924 50.2471 60.904 52.2582C60.0787 53.6549 60.3036 55.4335 61.451 56.5807L64.6019 59.7315L59.5741 64.7593L56.423 61.6087C55.2761 60.4618 53.4977 60.2366 52.1012 61.0617C50.0902 62.2496 47.9319 63.145 45.6869 63.7231C44.1157 64.1272 43.0176 65.5436 43.0176 67.166V71.6171H35.9072V67.166C35.9072 65.5438 34.8091 64.1274 33.2382 63.7231C30.9934 63.1453 28.8356 62.2498 26.8241 61.0617C25.4271 60.2364 23.6493 60.4615 22.5023 61.6087L19.3512 64.7593L14.323 59.7313L17.4738 56.5804C18.6212 55.4333 18.8461 53.6549 18.0209 52.2582C16.8329 50.2476 15.9377 48.0896 15.3597 45.8444C14.9555 44.2734 13.5389 43.1753 11.9168 43.1753H7.4654V36.0649H11.9168C13.5389 36.0649 14.9553 34.9668 15.3597 33.3959C15.9375 31.1504 16.8329 28.9924 18.0209 26.9818C18.8461 25.585 18.6212 23.8067 17.4738 22.6595L14.3232 19.5087L19.3512 14.4809L22.5021 17.6315C23.6493 18.7787 25.4278 19.0038 26.8243 18.1785C28.8351 16.9904 30.9934 16.0952 33.2384 15.5171C34.8091 15.113 35.9072 13.6966 35.9072 12.0742V7.62308H43.0176V12.0742C43.0176 13.6964 44.1157 15.1128 45.6867 15.5171C47.9321 16.0952 50.0902 16.9904 52.101 18.1785C53.498 19.0036 55.2761 18.7787 56.4232 17.6315L59.5741 14.4809L64.6019 19.5087L61.451 22.6595C60.3036 23.8067 60.0787 25.5853 60.904 26.982C62.0924 28.9928 62.9876 31.1506 63.5649 33.3951C63.969 34.9663 65.3857 36.0646 67.0081 36.0646H71.4594V43.1753Z" fill="#03045E"/>
<path d="M44.5331 31.892L36.3812 40.0437L34.1547 37.8174C32.7665 36.4289 30.5153 36.4289 29.1269 37.8174C27.7385 39.2058 27.7385 41.4567 29.1269 42.8452L33.8672 47.5855C34.5614 48.2797 35.4713 48.6267 36.3812 48.6267C37.2911 48.6267 38.201 48.2797 38.895 47.5852L49.5607 36.9196C50.9491 35.5311 50.9491 33.2802 49.5607 31.8918C48.1725 30.5033 45.9213 30.5033 44.5331 31.892Z" fill="#03045E"/>
</g>
<defs>
<clipPath id="clip0_1_950">
<rect width="78.2149" height="78.2149" fill="white" transform="translate(0.35495 0.512634)"/>
</clipPath>
</defs>
</svg>
