<svg width="64" height="64" viewBox="0 0 64 64" fill="none" xmlns="http://www.w3.org/2000/svg">
<g clip-path="url(#clip0_1_919)">
<path d="M40.8052 0.687561L55.2309 16.9306V60.4153C55.2309 61.9861 53.9949 63.2595 52.4703 63.2595H11.0624C9.53782 63.2595 8.30189 61.9861 8.30189 60.4153V3.53174C8.30189 1.96094 9.53782 0.687561 11.0624 0.687561H40.8052ZM38.9814 4.95383H12.4427V58.9932H51.0901L51.0902 20.5306L42.2391 20.529C40.0314 20.6167 38.3245 20.2598 37.1052 19.297C35.6871 18.1774 35.1662 16.2691 35.2349 13.7232V4.96558L38.9934 4.96435L38.9814 4.95383ZM34.6572 46.1944C35.8006 46.1944 36.7275 47.1495 36.7275 48.3276C36.7275 49.5057 35.8006 50.4607 34.6572 50.4607H18.6539C17.5104 50.4607 16.5835 49.5057 16.5835 48.3276C16.5835 47.1495 17.5104 46.1944 18.6539 46.1944H34.6572ZM44.2148 34.8177C45.3582 34.8177 46.2852 35.7728 46.2852 36.9509C46.2852 38.129 45.3582 39.084 44.2148 39.084H18.6539C17.5104 39.084 16.5835 38.129 16.5835 36.9509C16.5835 35.7728 17.5104 34.8177 18.6539 34.8177H44.2148ZM34.6572 23.441C35.8006 23.441 36.7275 24.396 36.7275 25.5741C36.7275 26.7522 35.8006 27.7073 34.6572 27.7073H18.6539C17.5104 27.7073 16.5835 26.7522 16.5835 25.5741C16.5835 24.396 17.5104 23.441 18.6539 23.441H34.6572ZM39.2249 5.22403L39.3756 5.40787L39.3749 13.7818C39.3384 15.1527 39.5237 15.8316 39.6239 15.9107C39.9228 16.1468 40.7459 16.3189 42.1593 16.2643H49.022L50.1952 17.5907L51.0901 18.5879L39.2249 5.22403Z" fill="white"/>
</g>
<defs>
<clipPath id="clip0_1_919">
<rect width="62.572" height="62.572" fill="white" transform="translate(0.480392 0.687561)"/>
</clipPath>
</defs>
</svg>
