<svg width="79" height="79" viewBox="0 0 79 79" fill="none" xmlns="http://www.w3.org/2000/svg">
<path d="M27.1556 59.1738H51.5978V64.0623H27.1556V59.1738ZM32.044 68.9507H46.7093V73.8391H32.044V68.9507ZM39.3767 5.40106C32.8942 5.40106 26.6773 7.97621 22.0935 12.56C17.5097 17.1438 14.9345 23.3608 14.9345 29.8432C14.7692 33.3955 15.4497 36.9363 16.92 40.1742C18.3902 43.4122 20.6082 46.2548 23.3915 48.4682C25.8357 50.7413 27.1556 52.0367 27.1556 54.2854H32.044C32.044 49.788 29.331 47.2705 26.6912 44.8507C24.4067 43.1013 22.5861 40.8184 21.3887 38.2021C20.1913 35.5857 19.6537 32.7156 19.823 29.8432C19.823 24.6573 21.8831 19.6837 25.5501 16.0167C29.2172 12.3496 34.1907 10.2895 39.3767 10.2895C44.5627 10.2895 49.5362 12.3496 53.2033 16.0167C56.8703 19.6837 58.9304 24.6573 58.9304 29.8432C59.0969 32.7177 58.5555 35.5892 57.3538 38.2057C56.1521 40.8222 54.3267 43.104 52.0377 44.8507C49.4224 47.2949 46.7093 49.7392 46.7093 54.2854H51.5978C51.5978 52.0367 52.8932 50.7413 55.3619 48.4437C58.1432 46.2341 60.3602 43.3957 61.8305 40.162C63.3007 36.9283 63.9822 33.3917 63.8189 29.8432C63.8189 26.6334 63.1867 23.4551 61.9583 20.4896C60.73 17.5242 58.9296 14.8297 56.6599 12.56C54.3903 10.2903 51.6958 8.48995 48.7303 7.26161C45.7648 6.03328 42.5865 5.40106 39.3767 5.40106Z" fill="white"/>
</svg>
